<svg xmlns="http://www.w3.org/2000/svg" viewBox="0 0 2001 2001">
<g>
<g transform="translate(621,0) scale(0.138,0.138)"><g transform="" style="fill: rgb(255, 255, 255);">
<path d="M250,0c138.077,0,250,111.93,250,250c0,138.077-111.923,250-250,250C111.93,500,0,388.077,0,250C0,111.93,111.93,0,250,0z"
	/>
</g></g><g transform="translate(690,0) scale(0.138,0.138)"><g transform="" style="fill: rgb(255, 255, 255);">
<path d="M250,0c138.077,0,250,111.93,250,250c0,138.077-111.923,250-250,250C111.93,500,0,388.077,0,250C0,111.93,111.93,0,250,0z"
	/>
</g></g><g transform="translate(759,0) scale(0.138,0.138)"><g transform="" style="fill: rgb(255, 255, 255);">
<path d="M250,0c138.077,0,250,111.93,250,250c0,138.077-111.923,250-250,250C111.93,500,0,388.077,0,250C0,111.93,111.93,0,250,0z"
	/>
</g></g><g transform="translate(897,0) scale(0.138,0.138)"><g transform="" style="fill: rgb(255, 255, 255);">
<path d="M250,0c138.077,0,250,111.93,250,250c0,138.077-111.923,250-250,250C111.93,500,0,388.077,0,250C0,111.93,111.93,0,250,0z"
	/>
</g></g><g transform="translate(966,0) scale(0.138,0.138)"><g transform="" style="fill: rgb(255, 255, 255);">
<path d="M250,0c138.077,0,250,111.93,250,250c0,138.077-111.923,250-250,250C111.93,500,0,388.077,0,250C0,111.93,111.93,0,250,0z"
	/>
</g></g><g transform="translate(1035,0) scale(0.138,0.138)"><g transform="" style="fill: rgb(255, 255, 255);">
<path d="M250,0c138.077,0,250,111.93,250,250c0,138.077-111.923,250-250,250C111.93,500,0,388.077,0,250C0,111.93,111.93,0,250,0z"
	/>
</g></g><g transform="translate(1173,0) scale(0.138,0.138)"><g transform="" style="fill: rgb(255, 255, 255);">
<path d="M250,0c138.077,0,250,111.93,250,250c0,138.077-111.923,250-250,250C111.93,500,0,388.077,0,250C0,111.93,111.93,0,250,0z"
	/>
</g></g><g transform="translate(1242,0) scale(0.138,0.138)"><g transform="" style="fill: rgb(255, 255, 255);">
<path d="M250,0c138.077,0,250,111.93,250,250c0,138.077-111.923,250-250,250C111.93,500,0,388.077,0,250C0,111.93,111.93,0,250,0z"
	/>
</g></g><g transform="translate(552,69) scale(0.138,0.138)"><g transform="" style="fill: rgb(255, 255, 255);">
<path d="M250,0c138.077,0,250,111.93,250,250c0,138.077-111.923,250-250,250C111.93,500,0,388.077,0,250C0,111.93,111.93,0,250,0z"
	/>
</g></g><g transform="translate(621,69) scale(0.138,0.138)"><g transform="" style="fill: rgb(255, 255, 255);">
<path d="M250,0c138.077,0,250,111.93,250,250c0,138.077-111.923,250-250,250C111.93,500,0,388.077,0,250C0,111.93,111.93,0,250,0z"
	/>
</g></g><g transform="translate(759,69) scale(0.138,0.138)"><g transform="" style="fill: rgb(255, 255, 255);">
<path d="M250,0c138.077,0,250,111.93,250,250c0,138.077-111.923,250-250,250C111.93,500,0,388.077,0,250C0,111.93,111.93,0,250,0z"
	/>
</g></g><g transform="translate(828,69) scale(0.138,0.138)"><g transform="" style="fill: rgb(255, 255, 255);">
<path d="M250,0c138.077,0,250,111.93,250,250c0,138.077-111.923,250-250,250C111.93,500,0,388.077,0,250C0,111.93,111.93,0,250,0z"
	/>
</g></g><g transform="translate(1035,69) scale(0.138,0.138)"><g transform="" style="fill: rgb(255, 255, 255);">
<path d="M250,0c138.077,0,250,111.93,250,250c0,138.077-111.923,250-250,250C111.93,500,0,388.077,0,250C0,111.93,111.93,0,250,0z"
	/>
</g></g><g transform="translate(1173,69) scale(0.138,0.138)"><g transform="" style="fill: rgb(255, 255, 255);">
<path d="M250,0c138.077,0,250,111.93,250,250c0,138.077-111.923,250-250,250C111.93,500,0,388.077,0,250C0,111.93,111.93,0,250,0z"
	/>
</g></g><g transform="translate(1242,69) scale(0.138,0.138)"><g transform="" style="fill: rgb(255, 255, 255);">
<path d="M250,0c138.077,0,250,111.93,250,250c0,138.077-111.923,250-250,250C111.93,500,0,388.077,0,250C0,111.93,111.93,0,250,0z"
	/>
</g></g><g transform="translate(552,138) scale(0.138,0.138)"><g transform="" style="fill: rgb(255, 255, 255);">
<path d="M250,0c138.077,0,250,111.93,250,250c0,138.077-111.923,250-250,250C111.93,500,0,388.077,0,250C0,111.93,111.93,0,250,0z"
	/>
</g></g><g transform="translate(621,138) scale(0.138,0.138)"><g transform="" style="fill: rgb(255, 255, 255);">
<path d="M250,0c138.077,0,250,111.93,250,250c0,138.077-111.923,250-250,250C111.93,500,0,388.077,0,250C0,111.93,111.93,0,250,0z"
	/>
</g></g><g transform="translate(759,138) scale(0.138,0.138)"><g transform="" style="fill: rgb(255, 255, 255);">
<path d="M250,0c138.077,0,250,111.93,250,250c0,138.077-111.923,250-250,250C111.93,500,0,388.077,0,250C0,111.93,111.93,0,250,0z"
	/>
</g></g><g transform="translate(966,138) scale(0.138,0.138)"><g transform="" style="fill: rgb(255, 255, 255);">
<path d="M250,0c138.077,0,250,111.93,250,250c0,138.077-111.923,250-250,250C111.93,500,0,388.077,0,250C0,111.93,111.93,0,250,0z"
	/>
</g></g><g transform="translate(1104,138) scale(0.138,0.138)"><g transform="" style="fill: rgb(255, 255, 255);">
<path d="M250,0c138.077,0,250,111.93,250,250c0,138.077-111.923,250-250,250C111.93,500,0,388.077,0,250C0,111.93,111.93,0,250,0z"
	/>
</g></g><g transform="translate(1311,138) scale(0.138,0.138)"><g transform="" style="fill: rgb(255, 255, 255);">
<path d="M250,0c138.077,0,250,111.93,250,250c0,138.077-111.923,250-250,250C111.93,500,0,388.077,0,250C0,111.93,111.93,0,250,0z"
	/>
</g></g><g transform="translate(552,207) scale(0.138,0.138)"><g transform="" style="fill: rgb(255, 255, 255);">
<path d="M250,0c138.077,0,250,111.93,250,250c0,138.077-111.923,250-250,250C111.93,500,0,388.077,0,250C0,111.93,111.93,0,250,0z"
	/>
</g></g><g transform="translate(621,207) scale(0.138,0.138)"><g transform="" style="fill: rgb(255, 255, 255);">
<path d="M250,0c138.077,0,250,111.93,250,250c0,138.077-111.923,250-250,250C111.93,500,0,388.077,0,250C0,111.93,111.93,0,250,0z"
	/>
</g></g><g transform="translate(759,207) scale(0.138,0.138)"><g transform="" style="fill: rgb(255, 255, 255);">
<path d="M250,0c138.077,0,250,111.93,250,250c0,138.077-111.923,250-250,250C111.93,500,0,388.077,0,250C0,111.93,111.93,0,250,0z"
	/>
</g></g><g transform="translate(966,207) scale(0.138,0.138)"><g transform="" style="fill: rgb(255, 255, 255);">
<path d="M250,0c138.077,0,250,111.93,250,250c0,138.077-111.923,250-250,250C111.93,500,0,388.077,0,250C0,111.93,111.93,0,250,0z"
	/>
</g></g><g transform="translate(1035,207) scale(0.138,0.138)"><g transform="" style="fill: rgb(255, 255, 255);">
<path d="M250,0c138.077,0,250,111.93,250,250c0,138.077-111.923,250-250,250C111.93,500,0,388.077,0,250C0,111.93,111.93,0,250,0z"
	/>
</g></g><g transform="translate(1173,207) scale(0.138,0.138)"><g transform="" style="fill: rgb(255, 255, 255);">
<path d="M250,0c138.077,0,250,111.93,250,250c0,138.077-111.923,250-250,250C111.93,500,0,388.077,0,250C0,111.93,111.93,0,250,0z"
	/>
</g></g><g transform="translate(621,276) scale(0.138,0.138)"><g transform="" style="fill: rgb(255, 255, 255);">
<path d="M250,0c138.077,0,250,111.93,250,250c0,138.077-111.923,250-250,250C111.93,500,0,388.077,0,250C0,111.93,111.93,0,250,0z"
	/>
</g></g><g transform="translate(690,276) scale(0.138,0.138)"><g transform="" style="fill: rgb(255, 255, 255);">
<path d="M250,0c138.077,0,250,111.93,250,250c0,138.077-111.923,250-250,250C111.93,500,0,388.077,0,250C0,111.93,111.93,0,250,0z"
	/>
</g></g><g transform="translate(897,276) scale(0.138,0.138)"><g transform="" style="fill: rgb(255, 255, 255);">
<path d="M250,0c138.077,0,250,111.93,250,250c0,138.077-111.923,250-250,250C111.93,500,0,388.077,0,250C0,111.93,111.93,0,250,0z"
	/>
</g></g><g transform="translate(966,276) scale(0.138,0.138)"><g transform="" style="fill: rgb(255, 255, 255);">
<path d="M250,0c138.077,0,250,111.93,250,250c0,138.077-111.923,250-250,250C111.93,500,0,388.077,0,250C0,111.93,111.93,0,250,0z"
	/>
</g></g><g transform="translate(1035,276) scale(0.138,0.138)"><g transform="" style="fill: rgb(255, 255, 255);">
<path d="M250,0c138.077,0,250,111.93,250,250c0,138.077-111.923,250-250,250C111.93,500,0,388.077,0,250C0,111.93,111.93,0,250,0z"
	/>
</g></g><g transform="translate(1173,276) scale(0.138,0.138)"><g transform="" style="fill: rgb(255, 255, 255);">
<path d="M250,0c138.077,0,250,111.93,250,250c0,138.077-111.923,250-250,250C111.93,500,0,388.077,0,250C0,111.93,111.93,0,250,0z"
	/>
</g></g><g transform="translate(1242,276) scale(0.138,0.138)"><g transform="" style="fill: rgb(255, 255, 255);">
<path d="M250,0c138.077,0,250,111.93,250,250c0,138.077-111.923,250-250,250C111.93,500,0,388.077,0,250C0,111.93,111.93,0,250,0z"
	/>
</g></g><g transform="translate(1311,276) scale(0.138,0.138)"><g transform="" style="fill: rgb(255, 255, 255);">
<path d="M250,0c138.077,0,250,111.93,250,250c0,138.077-111.923,250-250,250C111.93,500,0,388.077,0,250C0,111.93,111.93,0,250,0z"
	/>
</g></g><g transform="translate(1380,276) scale(0.138,0.138)"><g transform="" style="fill: rgb(255, 255, 255);">
<path d="M250,0c138.077,0,250,111.93,250,250c0,138.077-111.923,250-250,250C111.93,500,0,388.077,0,250C0,111.93,111.93,0,250,0z"
	/>
</g></g><g transform="translate(690,345) scale(0.138,0.138)"><g transform="" style="fill: rgb(255, 255, 255);">
<path d="M250,0c138.077,0,250,111.93,250,250c0,138.077-111.923,250-250,250C111.93,500,0,388.077,0,250C0,111.93,111.93,0,250,0z"
	/>
</g></g><g transform="translate(759,345) scale(0.138,0.138)"><g transform="" style="fill: rgb(255, 255, 255);">
<path d="M250,0c138.077,0,250,111.93,250,250c0,138.077-111.923,250-250,250C111.93,500,0,388.077,0,250C0,111.93,111.93,0,250,0z"
	/>
</g></g><g transform="translate(897,345) scale(0.138,0.138)"><g transform="" style="fill: rgb(255, 255, 255);">
<path d="M250,0c138.077,0,250,111.93,250,250c0,138.077-111.923,250-250,250C111.93,500,0,388.077,0,250C0,111.93,111.93,0,250,0z"
	/>
</g></g><g transform="translate(966,345) scale(0.138,0.138)"><g transform="" style="fill: rgb(255, 255, 255);">
<path d="M250,0c138.077,0,250,111.93,250,250c0,138.077-111.923,250-250,250C111.93,500,0,388.077,0,250C0,111.93,111.93,0,250,0z"
	/>
</g></g><g transform="translate(1104,345) scale(0.138,0.138)"><g transform="" style="fill: rgb(255, 255, 255);">
<path d="M250,0c138.077,0,250,111.93,250,250c0,138.077-111.923,250-250,250C111.93,500,0,388.077,0,250C0,111.93,111.93,0,250,0z"
	/>
</g></g><g transform="translate(1242,345) scale(0.138,0.138)"><g transform="" style="fill: rgb(255, 255, 255);">
<path d="M250,0c138.077,0,250,111.93,250,250c0,138.077-111.923,250-250,250C111.93,500,0,388.077,0,250C0,111.93,111.93,0,250,0z"
	/>
</g></g><g transform="translate(1380,345) scale(0.138,0.138)"><g transform="" style="fill: rgb(255, 255, 255);">
<path d="M250,0c138.077,0,250,111.93,250,250c0,138.077-111.923,250-250,250C111.93,500,0,388.077,0,250C0,111.93,111.93,0,250,0z"
	/>
</g></g><g transform="translate(552,414) scale(0.138,0.138)"><g transform="" style="fill: rgb(255, 255, 255);">
<path d="M250,0c138.077,0,250,111.93,250,250c0,138.077-111.923,250-250,250C111.93,500,0,388.077,0,250C0,111.93,111.93,0,250,0z"
	/>
</g></g><g transform="translate(690,414) scale(0.138,0.138)"><g transform="" style="fill: rgb(255, 255, 255);">
<path d="M250,0c138.077,0,250,111.93,250,250c0,138.077-111.923,250-250,250C111.93,500,0,388.077,0,250C0,111.93,111.93,0,250,0z"
	/>
</g></g><g transform="translate(828,414) scale(0.138,0.138)"><g transform="" style="fill: rgb(255, 255, 255);">
<path d="M250,0c138.077,0,250,111.93,250,250c0,138.077-111.923,250-250,250C111.93,500,0,388.077,0,250C0,111.93,111.93,0,250,0z"
	/>
</g></g><g transform="translate(966,414) scale(0.138,0.138)"><g transform="" style="fill: rgb(255, 255, 255);">
<path d="M250,0c138.077,0,250,111.93,250,250c0,138.077-111.923,250-250,250C111.93,500,0,388.077,0,250C0,111.93,111.93,0,250,0z"
	/>
</g></g><g transform="translate(1104,414) scale(0.138,0.138)"><g transform="" style="fill: rgb(255, 255, 255);">
<path d="M250,0c138.077,0,250,111.93,250,250c0,138.077-111.923,250-250,250C111.93,500,0,388.077,0,250C0,111.93,111.93,0,250,0z"
	/>
</g></g><g transform="translate(1242,414) scale(0.138,0.138)"><g transform="" style="fill: rgb(255, 255, 255);">
<path d="M250,0c138.077,0,250,111.93,250,250c0,138.077-111.923,250-250,250C111.93,500,0,388.077,0,250C0,111.93,111.93,0,250,0z"
	/>
</g></g><g transform="translate(1380,414) scale(0.138,0.138)"><g transform="" style="fill: rgb(255, 255, 255);">
<path d="M250,0c138.077,0,250,111.93,250,250c0,138.077-111.923,250-250,250C111.93,500,0,388.077,0,250C0,111.93,111.93,0,250,0z"
	/>
</g></g><g transform="translate(552,483) scale(0.138,0.138)"><g transform="" style="fill: rgb(255, 255, 255);">
<path d="M250,0c138.077,0,250,111.93,250,250c0,138.077-111.923,250-250,250C111.93,500,0,388.077,0,250C0,111.93,111.93,0,250,0z"
	/>
</g></g><g transform="translate(621,483) scale(0.138,0.138)"><g transform="" style="fill: rgb(255, 255, 255);">
<path d="M250,0c138.077,0,250,111.93,250,250c0,138.077-111.923,250-250,250C111.93,500,0,388.077,0,250C0,111.93,111.93,0,250,0z"
	/>
</g></g><g transform="translate(690,483) scale(0.138,0.138)"><g transform="" style="fill: rgb(255, 255, 255);">
<path d="M250,0c138.077,0,250,111.93,250,250c0,138.077-111.923,250-250,250C111.93,500,0,388.077,0,250C0,111.93,111.93,0,250,0z"
	/>
</g></g><g transform="translate(828,483) scale(0.138,0.138)"><g transform="" style="fill: rgb(255, 255, 255);">
<path d="M250,0c138.077,0,250,111.93,250,250c0,138.077-111.923,250-250,250C111.93,500,0,388.077,0,250C0,111.93,111.93,0,250,0z"
	/>
</g></g><g transform="translate(897,483) scale(0.138,0.138)"><g transform="" style="fill: rgb(255, 255, 255);">
<path d="M250,0c138.077,0,250,111.93,250,250c0,138.077-111.923,250-250,250C111.93,500,0,388.077,0,250C0,111.93,111.93,0,250,0z"
	/>
</g></g><g transform="translate(1242,483) scale(0.138,0.138)"><g transform="" style="fill: rgb(255, 255, 255);">
<path d="M250,0c138.077,0,250,111.93,250,250c0,138.077-111.923,250-250,250C111.93,500,0,388.077,0,250C0,111.93,111.93,0,250,0z"
	/>
</g></g><g transform="translate(0,552) scale(0.138,0.138)"><g transform="" style="fill: rgb(255, 255, 255);">
<path d="M250,0c138.077,0,250,111.93,250,250c0,138.077-111.923,250-250,250C111.93,500,0,388.077,0,250C0,111.93,111.93,0,250,0z"
	/>
</g></g><g transform="translate(414,552) scale(0.138,0.138)"><g transform="" style="fill: rgb(255, 255, 255);">
<path d="M250,0c138.077,0,250,111.93,250,250c0,138.077-111.923,250-250,250C111.93,500,0,388.077,0,250C0,111.93,111.93,0,250,0z"
	/>
</g></g><g transform="translate(552,552) scale(0.138,0.138)"><g transform="" style="fill: rgb(255, 255, 255);">
<path d="M250,0c138.077,0,250,111.93,250,250c0,138.077-111.923,250-250,250C111.93,500,0,388.077,0,250C0,111.93,111.93,0,250,0z"
	/>
</g></g><g transform="translate(690,552) scale(0.138,0.138)"><g transform="" style="fill: rgb(255, 255, 255);">
<path d="M250,0c138.077,0,250,111.93,250,250c0,138.077-111.923,250-250,250C111.93,500,0,388.077,0,250C0,111.93,111.93,0,250,0z"
	/>
</g></g><g transform="translate(828,552) scale(0.138,0.138)"><g transform="" style="fill: rgb(255, 255, 255);">
<path d="M250,0c138.077,0,250,111.93,250,250c0,138.077-111.923,250-250,250C111.93,500,0,388.077,0,250C0,111.93,111.93,0,250,0z"
	/>
</g></g><g transform="translate(966,552) scale(0.138,0.138)"><g transform="" style="fill: rgb(255, 255, 255);">
<path d="M250,0c138.077,0,250,111.93,250,250c0,138.077-111.923,250-250,250C111.93,500,0,388.077,0,250C0,111.93,111.93,0,250,0z"
	/>
</g></g><g transform="translate(1035,552) scale(0.138,0.138)"><g transform="" style="fill: rgb(255, 255, 255);">
<path d="M250,0c138.077,0,250,111.93,250,250c0,138.077-111.923,250-250,250C111.93,500,0,388.077,0,250C0,111.93,111.93,0,250,0z"
	/>
</g></g><g transform="translate(1173,552) scale(0.138,0.138)"><g transform="" style="fill: rgb(255, 255, 255);">
<path d="M250,0c138.077,0,250,111.93,250,250c0,138.077-111.923,250-250,250C111.93,500,0,388.077,0,250C0,111.93,111.93,0,250,0z"
	/>
</g></g><g transform="translate(1311,552) scale(0.138,0.138)"><g transform="" style="fill: rgb(255, 255, 255);">
<path d="M250,0c138.077,0,250,111.93,250,250c0,138.077-111.923,250-250,250C111.93,500,0,388.077,0,250C0,111.93,111.93,0,250,0z"
	/>
</g></g><g transform="translate(1449,552) scale(0.138,0.138)"><g transform="" style="fill: rgb(255, 255, 255);">
<path d="M250,0c138.077,0,250,111.93,250,250c0,138.077-111.923,250-250,250C111.93,500,0,388.077,0,250C0,111.93,111.93,0,250,0z"
	/>
</g></g><g transform="translate(1518,552) scale(0.138,0.138)"><g transform="" style="fill: rgb(255, 255, 255);">
<path d="M250,0c138.077,0,250,111.93,250,250c0,138.077-111.923,250-250,250C111.93,500,0,388.077,0,250C0,111.93,111.93,0,250,0z"
	/>
</g></g><g transform="translate(1725,552) scale(0.138,0.138)"><g transform="" style="fill: rgb(255, 255, 255);">
<path d="M250,0c138.077,0,250,111.93,250,250c0,138.077-111.923,250-250,250C111.93,500,0,388.077,0,250C0,111.93,111.93,0,250,0z"
	/>
</g></g><g transform="translate(1794,552) scale(0.138,0.138)"><g transform="" style="fill: rgb(255, 255, 255);">
<path d="M250,0c138.077,0,250,111.93,250,250c0,138.077-111.923,250-250,250C111.93,500,0,388.077,0,250C0,111.93,111.93,0,250,0z"
	/>
</g></g><g transform="translate(1863,552) scale(0.138,0.138)"><g transform="" style="fill: rgb(255, 255, 255);">
<path d="M250,0c138.077,0,250,111.93,250,250c0,138.077-111.923,250-250,250C111.93,500,0,388.077,0,250C0,111.93,111.93,0,250,0z"
	/>
</g></g><g transform="translate(0,621) scale(0.138,0.138)"><g transform="" style="fill: rgb(255, 255, 255);">
<path d="M250,0c138.077,0,250,111.93,250,250c0,138.077-111.923,250-250,250C111.93,500,0,388.077,0,250C0,111.93,111.93,0,250,0z"
	/>
</g></g><g transform="translate(690,621) scale(0.138,0.138)"><g transform="" style="fill: rgb(255, 255, 255);">
<path d="M250,0c138.077,0,250,111.93,250,250c0,138.077-111.923,250-250,250C111.93,500,0,388.077,0,250C0,111.93,111.93,0,250,0z"
	/>
</g></g><g transform="translate(828,621) scale(0.138,0.138)"><g transform="" style="fill: rgb(255, 255, 255);">
<path d="M250,0c138.077,0,250,111.93,250,250c0,138.077-111.923,250-250,250C111.93,500,0,388.077,0,250C0,111.93,111.93,0,250,0z"
	/>
</g></g><g transform="translate(966,621) scale(0.138,0.138)"><g transform="" style="fill: rgb(255, 255, 255);">
<path d="M250,0c138.077,0,250,111.93,250,250c0,138.077-111.923,250-250,250C111.93,500,0,388.077,0,250C0,111.93,111.93,0,250,0z"
	/>
</g></g><g transform="translate(1173,621) scale(0.138,0.138)"><g transform="" style="fill: rgb(255, 255, 255);">
<path d="M250,0c138.077,0,250,111.93,250,250c0,138.077-111.923,250-250,250C111.93,500,0,388.077,0,250C0,111.93,111.93,0,250,0z"
	/>
</g></g><g transform="translate(1242,621) scale(0.138,0.138)"><g transform="" style="fill: rgb(255, 255, 255);">
<path d="M250,0c138.077,0,250,111.93,250,250c0,138.077-111.923,250-250,250C111.93,500,0,388.077,0,250C0,111.93,111.93,0,250,0z"
	/>
</g></g><g transform="translate(1311,621) scale(0.138,0.138)"><g transform="" style="fill: rgb(255, 255, 255);">
<path d="M250,0c138.077,0,250,111.93,250,250c0,138.077-111.923,250-250,250C111.93,500,0,388.077,0,250C0,111.93,111.93,0,250,0z"
	/>
</g></g><g transform="translate(1449,621) scale(0.138,0.138)"><g transform="" style="fill: rgb(255, 255, 255);">
<path d="M250,0c138.077,0,250,111.93,250,250c0,138.077-111.923,250-250,250C111.93,500,0,388.077,0,250C0,111.93,111.93,0,250,0z"
	/>
</g></g><g transform="translate(1587,621) scale(0.138,0.138)"><g transform="" style="fill: rgb(255, 255, 255);">
<path d="M250,0c138.077,0,250,111.93,250,250c0,138.077-111.923,250-250,250C111.93,500,0,388.077,0,250C0,111.93,111.93,0,250,0z"
	/>
</g></g><g transform="translate(1656,621) scale(0.138,0.138)"><g transform="" style="fill: rgb(255, 255, 255);">
<path d="M250,0c138.077,0,250,111.93,250,250c0,138.077-111.923,250-250,250C111.93,500,0,388.077,0,250C0,111.93,111.93,0,250,0z"
	/>
</g></g><g transform="translate(1794,621) scale(0.138,0.138)"><g transform="" style="fill: rgb(255, 255, 255);">
<path d="M250,0c138.077,0,250,111.93,250,250c0,138.077-111.923,250-250,250C111.93,500,0,388.077,0,250C0,111.93,111.93,0,250,0z"
	/>
</g></g><g transform="translate(1863,621) scale(0.138,0.138)"><g transform="" style="fill: rgb(255, 255, 255);">
<path d="M250,0c138.077,0,250,111.93,250,250c0,138.077-111.923,250-250,250C111.93,500,0,388.077,0,250C0,111.93,111.93,0,250,0z"
	/>
</g></g><g transform="translate(0,690) scale(0.138,0.138)"><g transform="" style="fill: rgb(255, 255, 255);">
<path d="M250,0c138.077,0,250,111.93,250,250c0,138.077-111.923,250-250,250C111.93,500,0,388.077,0,250C0,111.93,111.93,0,250,0z"
	/>
</g></g><g transform="translate(207,690) scale(0.138,0.138)"><g transform="" style="fill: rgb(255, 255, 255);">
<path d="M250,0c138.077,0,250,111.93,250,250c0,138.077-111.923,250-250,250C111.93,500,0,388.077,0,250C0,111.93,111.93,0,250,0z"
	/>
</g></g><g transform="translate(276,690) scale(0.138,0.138)"><g transform="" style="fill: rgb(255, 255, 255);">
<path d="M250,0c138.077,0,250,111.93,250,250c0,138.077-111.923,250-250,250C111.93,500,0,388.077,0,250C0,111.93,111.93,0,250,0z"
	/>
</g></g><g transform="translate(414,690) scale(0.138,0.138)"><g transform="" style="fill: rgb(255, 255, 255);">
<path d="M250,0c138.077,0,250,111.93,250,250c0,138.077-111.923,250-250,250C111.93,500,0,388.077,0,250C0,111.93,111.93,0,250,0z"
	/>
</g></g><g transform="translate(621,690) scale(0.138,0.138)"><g transform="" style="fill: rgb(255, 255, 255);">
<path d="M250,0c138.077,0,250,111.93,250,250c0,138.077-111.923,250-250,250C111.93,500,0,388.077,0,250C0,111.93,111.93,0,250,0z"
	/>
</g></g><g transform="translate(759,690) scale(0.138,0.138)"><g transform="" style="fill: rgb(255, 255, 255);">
<path d="M250,0c138.077,0,250,111.93,250,250c0,138.077-111.923,250-250,250C111.93,500,0,388.077,0,250C0,111.93,111.93,0,250,0z"
	/>
</g></g><g transform="translate(1173,690) scale(0.138,0.138)"><g transform="" style="fill: rgb(255, 255, 255);">
<path d="M250,0c138.077,0,250,111.93,250,250c0,138.077-111.923,250-250,250C111.93,500,0,388.077,0,250C0,111.93,111.93,0,250,0z"
	/>
</g></g><g transform="translate(1380,690) scale(0.138,0.138)"><g transform="" style="fill: rgb(255, 255, 255);">
<path d="M250,0c138.077,0,250,111.93,250,250c0,138.077-111.923,250-250,250C111.93,500,0,388.077,0,250C0,111.93,111.93,0,250,0z"
	/>
</g></g><g transform="translate(1656,690) scale(0.138,0.138)"><g transform="" style="fill: rgb(255, 255, 255);">
<path d="M250,0c138.077,0,250,111.93,250,250c0,138.077-111.923,250-250,250C111.93,500,0,388.077,0,250C0,111.93,111.93,0,250,0z"
	/>
</g></g><g transform="translate(69,759) scale(0.138,0.138)"><g transform="" style="fill: rgb(255, 255, 255);">
<path d="M250,0c138.077,0,250,111.93,250,250c0,138.077-111.923,250-250,250C111.93,500,0,388.077,0,250C0,111.93,111.93,0,250,0z"
	/>
</g></g><g transform="translate(138,759) scale(0.138,0.138)"><g transform="" style="fill: rgb(255, 255, 255);">
<path d="M250,0c138.077,0,250,111.93,250,250c0,138.077-111.923,250-250,250C111.93,500,0,388.077,0,250C0,111.93,111.93,0,250,0z"
	/>
</g></g><g transform="translate(207,759) scale(0.138,0.138)"><g transform="" style="fill: rgb(255, 255, 255);">
<path d="M250,0c138.077,0,250,111.93,250,250c0,138.077-111.923,250-250,250C111.93,500,0,388.077,0,250C0,111.93,111.93,0,250,0z"
	/>
</g></g><g transform="translate(276,759) scale(0.138,0.138)"><g transform="" style="fill: rgb(255, 255, 255);">
<path d="M250,0c138.077,0,250,111.93,250,250c0,138.077-111.923,250-250,250C111.93,500,0,388.077,0,250C0,111.93,111.93,0,250,0z"
	/>
</g></g><g transform="translate(483,759) scale(0.138,0.138)"><g transform="" style="fill: rgb(255, 255, 255);">
<path d="M250,0c138.077,0,250,111.93,250,250c0,138.077-111.923,250-250,250C111.93,500,0,388.077,0,250C0,111.93,111.93,0,250,0z"
	/>
</g></g><g transform="translate(552,759) scale(0.138,0.138)"><g transform="" style="fill: rgb(255, 255, 255);">
<path d="M250,0c138.077,0,250,111.93,250,250c0,138.077-111.923,250-250,250C111.93,500,0,388.077,0,250C0,111.93,111.93,0,250,0z"
	/>
</g></g><g transform="translate(828,759) scale(0.138,0.138)"><g transform="" style="fill: rgb(255, 255, 255);">
<path d="M250,0c138.077,0,250,111.93,250,250c0,138.077-111.923,250-250,250C111.93,500,0,388.077,0,250C0,111.93,111.93,0,250,0z"
	/>
</g></g><g transform="translate(966,759) scale(0.138,0.138)"><g transform="" style="fill: rgb(255, 255, 255);">
<path d="M250,0c138.077,0,250,111.93,250,250c0,138.077-111.923,250-250,250C111.93,500,0,388.077,0,250C0,111.93,111.93,0,250,0z"
	/>
</g></g><g transform="translate(1035,759) scale(0.138,0.138)"><g transform="" style="fill: rgb(255, 255, 255);">
<path d="M250,0c138.077,0,250,111.93,250,250c0,138.077-111.923,250-250,250C111.93,500,0,388.077,0,250C0,111.93,111.93,0,250,0z"
	/>
</g></g><g transform="translate(1104,759) scale(0.138,0.138)"><g transform="" style="fill: rgb(255, 255, 255);">
<path d="M250,0c138.077,0,250,111.93,250,250c0,138.077-111.923,250-250,250C111.93,500,0,388.077,0,250C0,111.93,111.93,0,250,0z"
	/>
</g></g><g transform="translate(1311,759) scale(0.138,0.138)"><g transform="" style="fill: rgb(255, 255, 255);">
<path d="M250,0c138.077,0,250,111.93,250,250c0,138.077-111.923,250-250,250C111.93,500,0,388.077,0,250C0,111.93,111.93,0,250,0z"
	/>
</g></g><g transform="translate(1449,759) scale(0.138,0.138)"><g transform="" style="fill: rgb(255, 255, 255);">
<path d="M250,0c138.077,0,250,111.93,250,250c0,138.077-111.923,250-250,250C111.93,500,0,388.077,0,250C0,111.93,111.93,0,250,0z"
	/>
</g></g><g transform="translate(1725,759) scale(0.138,0.138)"><g transform="" style="fill: rgb(255, 255, 255);">
<path d="M250,0c138.077,0,250,111.93,250,250c0,138.077-111.923,250-250,250C111.93,500,0,388.077,0,250C0,111.93,111.93,0,250,0z"
	/>
</g></g><g transform="translate(0,828) scale(0.138,0.138)"><g transform="" style="fill: rgb(255, 255, 255);">
<path d="M250,0c138.077,0,250,111.93,250,250c0,138.077-111.923,250-250,250C111.93,500,0,388.077,0,250C0,111.93,111.93,0,250,0z"
	/>
</g></g><g transform="translate(69,828) scale(0.138,0.138)"><g transform="" style="fill: rgb(255, 255, 255);">
<path d="M250,0c138.077,0,250,111.93,250,250c0,138.077-111.923,250-250,250C111.93,500,0,388.077,0,250C0,111.93,111.93,0,250,0z"
	/>
</g></g><g transform="translate(207,828) scale(0.138,0.138)"><g transform="" style="fill: rgb(255, 255, 255);">
<path d="M250,0c138.077,0,250,111.93,250,250c0,138.077-111.923,250-250,250C111.93,500,0,388.077,0,250C0,111.93,111.93,0,250,0z"
	/>
</g></g><g transform="translate(414,828) scale(0.138,0.138)"><g transform="" style="fill: rgb(255, 255, 255);">
<path d="M250,0c138.077,0,250,111.93,250,250c0,138.077-111.923,250-250,250C111.93,500,0,388.077,0,250C0,111.93,111.93,0,250,0z"
	/>
</g></g><g transform="translate(552,828) scale(0.138,0.138)"><g transform="" style="fill: rgb(255, 255, 255);">
<path d="M250,0c138.077,0,250,111.93,250,250c0,138.077-111.923,250-250,250C111.93,500,0,388.077,0,250C0,111.93,111.93,0,250,0z"
	/>
</g></g><g transform="translate(621,828) scale(0.138,0.138)"><g transform="" style="fill: rgb(255, 255, 255);">
<path d="M250,0c138.077,0,250,111.93,250,250c0,138.077-111.923,250-250,250C111.93,500,0,388.077,0,250C0,111.93,111.93,0,250,0z"
	/>
</g></g><g transform="translate(759,828) scale(0.138,0.138)"><g transform="" style="fill: rgb(255, 255, 255);">
<path d="M250,0c138.077,0,250,111.93,250,250c0,138.077-111.923,250-250,250C111.93,500,0,388.077,0,250C0,111.93,111.93,0,250,0z"
	/>
</g></g><g transform="translate(897,828) scale(0.138,0.138)"><g transform="" style="fill: rgb(255, 255, 255);">
<path d="M250,0c138.077,0,250,111.93,250,250c0,138.077-111.923,250-250,250C111.93,500,0,388.077,0,250C0,111.93,111.93,0,250,0z"
	/>
</g></g><g transform="translate(966,828) scale(0.138,0.138)"><g transform="" style="fill: rgb(255, 255, 255);">
<path d="M250,0c138.077,0,250,111.93,250,250c0,138.077-111.923,250-250,250C111.93,500,0,388.077,0,250C0,111.93,111.93,0,250,0z"
	/>
</g></g><g transform="translate(1104,828) scale(0.138,0.138)"><g transform="" style="fill: rgb(255, 255, 255);">
<path d="M250,0c138.077,0,250,111.93,250,250c0,138.077-111.923,250-250,250C111.93,500,0,388.077,0,250C0,111.93,111.93,0,250,0z"
	/>
</g></g><g transform="translate(1380,828) scale(0.138,0.138)"><g transform="" style="fill: rgb(255, 255, 255);">
<path d="M250,0c138.077,0,250,111.93,250,250c0,138.077-111.923,250-250,250C111.93,500,0,388.077,0,250C0,111.93,111.93,0,250,0z"
	/>
</g></g><g transform="translate(1518,828) scale(0.138,0.138)"><g transform="" style="fill: rgb(255, 255, 255);">
<path d="M250,0c138.077,0,250,111.93,250,250c0,138.077-111.923,250-250,250C111.93,500,0,388.077,0,250C0,111.93,111.93,0,250,0z"
	/>
</g></g><g transform="translate(1587,828) scale(0.138,0.138)"><g transform="" style="fill: rgb(255, 255, 255);">
<path d="M250,0c138.077,0,250,111.93,250,250c0,138.077-111.923,250-250,250C111.93,500,0,388.077,0,250C0,111.93,111.93,0,250,0z"
	/>
</g></g><g transform="translate(1932,828) scale(0.138,0.138)"><g transform="" style="fill: rgb(255, 255, 255);">
<path d="M250,0c138.077,0,250,111.93,250,250c0,138.077-111.923,250-250,250C111.93,500,0,388.077,0,250C0,111.93,111.93,0,250,0z"
	/>
</g></g><g transform="translate(69,897) scale(0.138,0.138)"><g transform="" style="fill: rgb(255, 255, 255);">
<path d="M250,0c138.077,0,250,111.93,250,250c0,138.077-111.923,250-250,250C111.93,500,0,388.077,0,250C0,111.93,111.93,0,250,0z"
	/>
</g></g><g transform="translate(207,897) scale(0.138,0.138)"><g transform="" style="fill: rgb(255, 255, 255);">
<path d="M250,0c138.077,0,250,111.93,250,250c0,138.077-111.923,250-250,250C111.93,500,0,388.077,0,250C0,111.93,111.93,0,250,0z"
	/>
</g></g><g transform="translate(621,897) scale(0.138,0.138)"><g transform="" style="fill: rgb(255, 255, 255);">
<path d="M250,0c138.077,0,250,111.93,250,250c0,138.077-111.923,250-250,250C111.93,500,0,388.077,0,250C0,111.93,111.93,0,250,0z"
	/>
</g></g><g transform="translate(690,897) scale(0.138,0.138)"><g transform="" style="fill: rgb(255, 255, 255);">
<path d="M250,0c138.077,0,250,111.93,250,250c0,138.077-111.923,250-250,250C111.93,500,0,388.077,0,250C0,111.93,111.93,0,250,0z"
	/>
</g></g><g transform="translate(828,897) scale(0.138,0.138)"><g transform="" style="fill: rgb(255, 255, 255);">
<path d="M250,0c138.077,0,250,111.93,250,250c0,138.077-111.923,250-250,250C111.93,500,0,388.077,0,250C0,111.93,111.93,0,250,0z"
	/>
</g></g><g transform="translate(897,897) scale(0.138,0.138)"><g transform="" style="fill: rgb(255, 255, 255);">
<path d="M250,0c138.077,0,250,111.93,250,250c0,138.077-111.923,250-250,250C111.93,500,0,388.077,0,250C0,111.93,111.93,0,250,0z"
	/>
</g></g><g transform="translate(966,897) scale(0.138,0.138)"><g transform="" style="fill: rgb(255, 255, 255);">
<path d="M250,0c138.077,0,250,111.93,250,250c0,138.077-111.923,250-250,250C111.93,500,0,388.077,0,250C0,111.93,111.93,0,250,0z"
	/>
</g></g><g transform="translate(1173,897) scale(0.138,0.138)"><g transform="" style="fill: rgb(255, 255, 255);">
<path d="M250,0c138.077,0,250,111.93,250,250c0,138.077-111.923,250-250,250C111.93,500,0,388.077,0,250C0,111.93,111.93,0,250,0z"
	/>
</g></g><g transform="translate(1242,897) scale(0.138,0.138)"><g transform="" style="fill: rgb(255, 255, 255);">
<path d="M250,0c138.077,0,250,111.93,250,250c0,138.077-111.923,250-250,250C111.93,500,0,388.077,0,250C0,111.93,111.93,0,250,0z"
	/>
</g></g><g transform="translate(1311,897) scale(0.138,0.138)"><g transform="" style="fill: rgb(255, 255, 255);">
<path d="M250,0c138.077,0,250,111.93,250,250c0,138.077-111.923,250-250,250C111.93,500,0,388.077,0,250C0,111.93,111.93,0,250,0z"
	/>
</g></g><g transform="translate(1380,897) scale(0.138,0.138)"><g transform="" style="fill: rgb(255, 255, 255);">
<path d="M250,0c138.077,0,250,111.93,250,250c0,138.077-111.923,250-250,250C111.93,500,0,388.077,0,250C0,111.93,111.93,0,250,0z"
	/>
</g></g><g transform="translate(1518,897) scale(0.138,0.138)"><g transform="" style="fill: rgb(255, 255, 255);">
<path d="M250,0c138.077,0,250,111.93,250,250c0,138.077-111.923,250-250,250C111.93,500,0,388.077,0,250C0,111.93,111.93,0,250,0z"
	/>
</g></g><g transform="translate(1587,897) scale(0.138,0.138)"><g transform="" style="fill: rgb(255, 255, 255);">
<path d="M250,0c138.077,0,250,111.93,250,250c0,138.077-111.923,250-250,250C111.93,500,0,388.077,0,250C0,111.93,111.93,0,250,0z"
	/>
</g></g><g transform="translate(1656,897) scale(0.138,0.138)"><g transform="" style="fill: rgb(255, 255, 255);">
<path d="M250,0c138.077,0,250,111.93,250,250c0,138.077-111.923,250-250,250C111.93,500,0,388.077,0,250C0,111.93,111.93,0,250,0z"
	/>
</g></g><g transform="translate(1863,897) scale(0.138,0.138)"><g transform="" style="fill: rgb(255, 255, 255);">
<path d="M250,0c138.077,0,250,111.93,250,250c0,138.077-111.923,250-250,250C111.93,500,0,388.077,0,250C0,111.93,111.93,0,250,0z"
	/>
</g></g><g transform="translate(1932,897) scale(0.138,0.138)"><g transform="" style="fill: rgb(255, 255, 255);">
<path d="M250,0c138.077,0,250,111.93,250,250c0,138.077-111.923,250-250,250C111.93,500,0,388.077,0,250C0,111.93,111.93,0,250,0z"
	/>
</g></g><g transform="translate(138,966) scale(0.138,0.138)"><g transform="" style="fill: rgb(255, 255, 255);">
<path d="M250,0c138.077,0,250,111.93,250,250c0,138.077-111.923,250-250,250C111.93,500,0,388.077,0,250C0,111.93,111.93,0,250,0z"
	/>
</g></g><g transform="translate(207,966) scale(0.138,0.138)"><g transform="" style="fill: rgb(255, 255, 255);">
<path d="M250,0c138.077,0,250,111.93,250,250c0,138.077-111.923,250-250,250C111.93,500,0,388.077,0,250C0,111.93,111.93,0,250,0z"
	/>
</g></g><g transform="translate(414,966) scale(0.138,0.138)"><g transform="" style="fill: rgb(255, 255, 255);">
<path d="M250,0c138.077,0,250,111.93,250,250c0,138.077-111.923,250-250,250C111.93,500,0,388.077,0,250C0,111.93,111.93,0,250,0z"
	/>
</g></g><g transform="translate(483,966) scale(0.138,0.138)"><g transform="" style="fill: rgb(255, 255, 255);">
<path d="M250,0c138.077,0,250,111.93,250,250c0,138.077-111.923,250-250,250C111.93,500,0,388.077,0,250C0,111.93,111.93,0,250,0z"
	/>
</g></g><g transform="translate(621,966) scale(0.138,0.138)"><g transform="" style="fill: rgb(255, 255, 255);">
<path d="M250,0c138.077,0,250,111.93,250,250c0,138.077-111.923,250-250,250C111.93,500,0,388.077,0,250C0,111.93,111.93,0,250,0z"
	/>
</g></g><g transform="translate(690,966) scale(0.138,0.138)"><g transform="" style="fill: rgb(255, 255, 255);">
<path d="M250,0c138.077,0,250,111.93,250,250c0,138.077-111.923,250-250,250C111.93,500,0,388.077,0,250C0,111.93,111.93,0,250,0z"
	/>
</g></g><g transform="translate(897,966) scale(0.138,0.138)"><g transform="" style="fill: rgb(255, 255, 255);">
<path d="M250,0c138.077,0,250,111.93,250,250c0,138.077-111.923,250-250,250C111.93,500,0,388.077,0,250C0,111.93,111.93,0,250,0z"
	/>
</g></g><g transform="translate(966,966) scale(0.138,0.138)"><g transform="" style="fill: rgb(255, 255, 255);">
<path d="M250,0c138.077,0,250,111.93,250,250c0,138.077-111.923,250-250,250C111.93,500,0,388.077,0,250C0,111.93,111.93,0,250,0z"
	/>
</g></g><g transform="translate(1035,966) scale(0.138,0.138)"><g transform="" style="fill: rgb(255, 255, 255);">
<path d="M250,0c138.077,0,250,111.93,250,250c0,138.077-111.923,250-250,250C111.93,500,0,388.077,0,250C0,111.93,111.93,0,250,0z"
	/>
</g></g><g transform="translate(1104,966) scale(0.138,0.138)"><g transform="" style="fill: rgb(255, 255, 255);">
<path d="M250,0c138.077,0,250,111.93,250,250c0,138.077-111.923,250-250,250C111.93,500,0,388.077,0,250C0,111.93,111.93,0,250,0z"
	/>
</g></g><g transform="translate(1173,966) scale(0.138,0.138)"><g transform="" style="fill: rgb(255, 255, 255);">
<path d="M250,0c138.077,0,250,111.93,250,250c0,138.077-111.923,250-250,250C111.93,500,0,388.077,0,250C0,111.93,111.93,0,250,0z"
	/>
</g></g><g transform="translate(1380,966) scale(0.138,0.138)"><g transform="" style="fill: rgb(255, 255, 255);">
<path d="M250,0c138.077,0,250,111.93,250,250c0,138.077-111.923,250-250,250C111.93,500,0,388.077,0,250C0,111.93,111.93,0,250,0z"
	/>
</g></g><g transform="translate(1449,966) scale(0.138,0.138)"><g transform="" style="fill: rgb(255, 255, 255);">
<path d="M250,0c138.077,0,250,111.93,250,250c0,138.077-111.923,250-250,250C111.93,500,0,388.077,0,250C0,111.93,111.93,0,250,0z"
	/>
</g></g><g transform="translate(1656,966) scale(0.138,0.138)"><g transform="" style="fill: rgb(255, 255, 255);">
<path d="M250,0c138.077,0,250,111.93,250,250c0,138.077-111.923,250-250,250C111.93,500,0,388.077,0,250C0,111.93,111.93,0,250,0z"
	/>
</g></g><g transform="translate(1725,966) scale(0.138,0.138)"><g transform="" style="fill: rgb(255, 255, 255);">
<path d="M250,0c138.077,0,250,111.93,250,250c0,138.077-111.923,250-250,250C111.93,500,0,388.077,0,250C0,111.93,111.93,0,250,0z"
	/>
</g></g><g transform="translate(1794,966) scale(0.138,0.138)"><g transform="" style="fill: rgb(255, 255, 255);">
<path d="M250,0c138.077,0,250,111.93,250,250c0,138.077-111.923,250-250,250C111.93,500,0,388.077,0,250C0,111.93,111.93,0,250,0z"
	/>
</g></g><g transform="translate(0,1035) scale(0.138,0.138)"><g transform="" style="fill: rgb(255, 255, 255);">
<path d="M250,0c138.077,0,250,111.93,250,250c0,138.077-111.923,250-250,250C111.93,500,0,388.077,0,250C0,111.93,111.93,0,250,0z"
	/>
</g></g><g transform="translate(69,1035) scale(0.138,0.138)"><g transform="" style="fill: rgb(255, 255, 255);">
<path d="M250,0c138.077,0,250,111.93,250,250c0,138.077-111.923,250-250,250C111.93,500,0,388.077,0,250C0,111.93,111.93,0,250,0z"
	/>
</g></g><g transform="translate(207,1035) scale(0.138,0.138)"><g transform="" style="fill: rgb(255, 255, 255);">
<path d="M250,0c138.077,0,250,111.93,250,250c0,138.077-111.923,250-250,250C111.93,500,0,388.077,0,250C0,111.93,111.93,0,250,0z"
	/>
</g></g><g transform="translate(276,1035) scale(0.138,0.138)"><g transform="" style="fill: rgb(255, 255, 255);">
<path d="M250,0c138.077,0,250,111.93,250,250c0,138.077-111.923,250-250,250C111.93,500,0,388.077,0,250C0,111.93,111.93,0,250,0z"
	/>
</g></g><g transform="translate(483,1035) scale(0.138,0.138)"><g transform="" style="fill: rgb(255, 255, 255);">
<path d="M250,0c138.077,0,250,111.93,250,250c0,138.077-111.923,250-250,250C111.93,500,0,388.077,0,250C0,111.93,111.93,0,250,0z"
	/>
</g></g><g transform="translate(552,1035) scale(0.138,0.138)"><g transform="" style="fill: rgb(255, 255, 255);">
<path d="M250,0c138.077,0,250,111.93,250,250c0,138.077-111.923,250-250,250C111.93,500,0,388.077,0,250C0,111.93,111.93,0,250,0z"
	/>
</g></g><g transform="translate(621,1035) scale(0.138,0.138)"><g transform="" style="fill: rgb(255, 255, 255);">
<path d="M250,0c138.077,0,250,111.93,250,250c0,138.077-111.923,250-250,250C111.93,500,0,388.077,0,250C0,111.93,111.93,0,250,0z"
	/>
</g></g><g transform="translate(690,1035) scale(0.138,0.138)"><g transform="" style="fill: rgb(255, 255, 255);">
<path d="M250,0c138.077,0,250,111.93,250,250c0,138.077-111.923,250-250,250C111.93,500,0,388.077,0,250C0,111.93,111.93,0,250,0z"
	/>
</g></g><g transform="translate(828,1035) scale(0.138,0.138)"><g transform="" style="fill: rgb(255, 255, 255);">
<path d="M250,0c138.077,0,250,111.93,250,250c0,138.077-111.923,250-250,250C111.93,500,0,388.077,0,250C0,111.93,111.93,0,250,0z"
	/>
</g></g><g transform="translate(897,1035) scale(0.138,0.138)"><g transform="" style="fill: rgb(255, 255, 255);">
<path d="M250,0c138.077,0,250,111.93,250,250c0,138.077-111.923,250-250,250C111.93,500,0,388.077,0,250C0,111.93,111.93,0,250,0z"
	/>
</g></g><g transform="translate(966,1035) scale(0.138,0.138)"><g transform="" style="fill: rgb(255, 255, 255);">
<path d="M250,0c138.077,0,250,111.93,250,250c0,138.077-111.923,250-250,250C111.93,500,0,388.077,0,250C0,111.93,111.93,0,250,0z"
	/>
</g></g><g transform="translate(1035,1035) scale(0.138,0.138)"><g transform="" style="fill: rgb(255, 255, 255);">
<path d="M250,0c138.077,0,250,111.93,250,250c0,138.077-111.923,250-250,250C111.93,500,0,388.077,0,250C0,111.93,111.93,0,250,0z"
	/>
</g></g><g transform="translate(1104,1035) scale(0.138,0.138)"><g transform="" style="fill: rgb(255, 255, 255);">
<path d="M250,0c138.077,0,250,111.93,250,250c0,138.077-111.923,250-250,250C111.93,500,0,388.077,0,250C0,111.93,111.93,0,250,0z"
	/>
</g></g><g transform="translate(1242,1035) scale(0.138,0.138)"><g transform="" style="fill: rgb(255, 255, 255);">
<path d="M250,0c138.077,0,250,111.93,250,250c0,138.077-111.923,250-250,250C111.93,500,0,388.077,0,250C0,111.93,111.93,0,250,0z"
	/>
</g></g><g transform="translate(1311,1035) scale(0.138,0.138)"><g transform="" style="fill: rgb(255, 255, 255);">
<path d="M250,0c138.077,0,250,111.93,250,250c0,138.077-111.923,250-250,250C111.93,500,0,388.077,0,250C0,111.93,111.93,0,250,0z"
	/>
</g></g><g transform="translate(1587,1035) scale(0.138,0.138)"><g transform="" style="fill: rgb(255, 255, 255);">
<path d="M250,0c138.077,0,250,111.93,250,250c0,138.077-111.923,250-250,250C111.93,500,0,388.077,0,250C0,111.93,111.93,0,250,0z"
	/>
</g></g><g transform="translate(1656,1035) scale(0.138,0.138)"><g transform="" style="fill: rgb(255, 255, 255);">
<path d="M250,0c138.077,0,250,111.93,250,250c0,138.077-111.923,250-250,250C111.93,500,0,388.077,0,250C0,111.93,111.93,0,250,0z"
	/>
</g></g><g transform="translate(1794,1035) scale(0.138,0.138)"><g transform="" style="fill: rgb(255, 255, 255);">
<path d="M250,0c138.077,0,250,111.93,250,250c0,138.077-111.923,250-250,250C111.93,500,0,388.077,0,250C0,111.93,111.93,0,250,0z"
	/>
</g></g><g transform="translate(1932,1035) scale(0.138,0.138)"><g transform="" style="fill: rgb(255, 255, 255);">
<path d="M250,0c138.077,0,250,111.93,250,250c0,138.077-111.923,250-250,250C111.93,500,0,388.077,0,250C0,111.93,111.93,0,250,0z"
	/>
</g></g><g transform="translate(0,1104) scale(0.138,0.138)"><g transform="" style="fill: rgb(255, 255, 255);">
<path d="M250,0c138.077,0,250,111.93,250,250c0,138.077-111.923,250-250,250C111.93,500,0,388.077,0,250C0,111.93,111.93,0,250,0z"
	/>
</g></g><g transform="translate(69,1104) scale(0.138,0.138)"><g transform="" style="fill: rgb(255, 255, 255);">
<path d="M250,0c138.077,0,250,111.93,250,250c0,138.077-111.923,250-250,250C111.93,500,0,388.077,0,250C0,111.93,111.93,0,250,0z"
	/>
</g></g><g transform="translate(138,1104) scale(0.138,0.138)"><g transform="" style="fill: rgb(255, 255, 255);">
<path d="M250,0c138.077,0,250,111.93,250,250c0,138.077-111.923,250-250,250C111.93,500,0,388.077,0,250C0,111.93,111.93,0,250,0z"
	/>
</g></g><g transform="translate(414,1104) scale(0.138,0.138)"><g transform="" style="fill: rgb(255, 255, 255);">
<path d="M250,0c138.077,0,250,111.93,250,250c0,138.077-111.923,250-250,250C111.93,500,0,388.077,0,250C0,111.93,111.93,0,250,0z"
	/>
</g></g><g transform="translate(552,1104) scale(0.138,0.138)"><g transform="" style="fill: rgb(255, 255, 255);">
<path d="M250,0c138.077,0,250,111.93,250,250c0,138.077-111.923,250-250,250C111.93,500,0,388.077,0,250C0,111.93,111.93,0,250,0z"
	/>
</g></g><g transform="translate(621,1104) scale(0.138,0.138)"><g transform="" style="fill: rgb(255, 255, 255);">
<path d="M250,0c138.077,0,250,111.93,250,250c0,138.077-111.923,250-250,250C111.93,500,0,388.077,0,250C0,111.93,111.93,0,250,0z"
	/>
</g></g><g transform="translate(759,1104) scale(0.138,0.138)"><g transform="" style="fill: rgb(255, 255, 255);">
<path d="M250,0c138.077,0,250,111.93,250,250c0,138.077-111.923,250-250,250C111.93,500,0,388.077,0,250C0,111.93,111.93,0,250,0z"
	/>
</g></g><g transform="translate(966,1104) scale(0.138,0.138)"><g transform="" style="fill: rgb(255, 255, 255);">
<path d="M250,0c138.077,0,250,111.93,250,250c0,138.077-111.923,250-250,250C111.93,500,0,388.077,0,250C0,111.93,111.93,0,250,0z"
	/>
</g></g><g transform="translate(1035,1104) scale(0.138,0.138)"><g transform="" style="fill: rgb(255, 255, 255);">
<path d="M250,0c138.077,0,250,111.93,250,250c0,138.077-111.923,250-250,250C111.93,500,0,388.077,0,250C0,111.93,111.93,0,250,0z"
	/>
</g></g><g transform="translate(1104,1104) scale(0.138,0.138)"><g transform="" style="fill: rgb(255, 255, 255);">
<path d="M250,0c138.077,0,250,111.93,250,250c0,138.077-111.923,250-250,250C111.93,500,0,388.077,0,250C0,111.93,111.93,0,250,0z"
	/>
</g></g><g transform="translate(1173,1104) scale(0.138,0.138)"><g transform="" style="fill: rgb(255, 255, 255);">
<path d="M250,0c138.077,0,250,111.93,250,250c0,138.077-111.923,250-250,250C111.93,500,0,388.077,0,250C0,111.93,111.93,0,250,0z"
	/>
</g></g><g transform="translate(1311,1104) scale(0.138,0.138)"><g transform="" style="fill: rgb(255, 255, 255);">
<path d="M250,0c138.077,0,250,111.93,250,250c0,138.077-111.923,250-250,250C111.93,500,0,388.077,0,250C0,111.93,111.93,0,250,0z"
	/>
</g></g><g transform="translate(1449,1104) scale(0.138,0.138)"><g transform="" style="fill: rgb(255, 255, 255);">
<path d="M250,0c138.077,0,250,111.93,250,250c0,138.077-111.923,250-250,250C111.93,500,0,388.077,0,250C0,111.93,111.93,0,250,0z"
	/>
</g></g><g transform="translate(1587,1104) scale(0.138,0.138)"><g transform="" style="fill: rgb(255, 255, 255);">
<path d="M250,0c138.077,0,250,111.93,250,250c0,138.077-111.923,250-250,250C111.93,500,0,388.077,0,250C0,111.93,111.93,0,250,0z"
	/>
</g></g><g transform="translate(1725,1104) scale(0.138,0.138)"><g transform="" style="fill: rgb(255, 255, 255);">
<path d="M250,0c138.077,0,250,111.93,250,250c0,138.077-111.923,250-250,250C111.93,500,0,388.077,0,250C0,111.93,111.93,0,250,0z"
	/>
</g></g><g transform="translate(1794,1104) scale(0.138,0.138)"><g transform="" style="fill: rgb(255, 255, 255);">
<path d="M250,0c138.077,0,250,111.93,250,250c0,138.077-111.923,250-250,250C111.93,500,0,388.077,0,250C0,111.93,111.93,0,250,0z"
	/>
</g></g><g transform="translate(0,1173) scale(0.138,0.138)"><g transform="" style="fill: rgb(255, 255, 255);">
<path d="M250,0c138.077,0,250,111.93,250,250c0,138.077-111.923,250-250,250C111.93,500,0,388.077,0,250C0,111.93,111.93,0,250,0z"
	/>
</g></g><g transform="translate(138,1173) scale(0.138,0.138)"><g transform="" style="fill: rgb(255, 255, 255);">
<path d="M250,0c138.077,0,250,111.93,250,250c0,138.077-111.923,250-250,250C111.93,500,0,388.077,0,250C0,111.93,111.93,0,250,0z"
	/>
</g></g><g transform="translate(276,1173) scale(0.138,0.138)"><g transform="" style="fill: rgb(255, 255, 255);">
<path d="M250,0c138.077,0,250,111.93,250,250c0,138.077-111.923,250-250,250C111.93,500,0,388.077,0,250C0,111.93,111.93,0,250,0z"
	/>
</g></g><g transform="translate(345,1173) scale(0.138,0.138)"><g transform="" style="fill: rgb(255, 255, 255);">
<path d="M250,0c138.077,0,250,111.93,250,250c0,138.077-111.923,250-250,250C111.93,500,0,388.077,0,250C0,111.93,111.93,0,250,0z"
	/>
</g></g><g transform="translate(483,1173) scale(0.138,0.138)"><g transform="" style="fill: rgb(255, 255, 255);">
<path d="M250,0c138.077,0,250,111.93,250,250c0,138.077-111.923,250-250,250C111.93,500,0,388.077,0,250C0,111.93,111.93,0,250,0z"
	/>
</g></g><g transform="translate(552,1173) scale(0.138,0.138)"><g transform="" style="fill: rgb(255, 255, 255);">
<path d="M250,0c138.077,0,250,111.93,250,250c0,138.077-111.923,250-250,250C111.93,500,0,388.077,0,250C0,111.93,111.93,0,250,0z"
	/>
</g></g><g transform="translate(759,1173) scale(0.138,0.138)"><g transform="" style="fill: rgb(255, 255, 255);">
<path d="M250,0c138.077,0,250,111.93,250,250c0,138.077-111.923,250-250,250C111.93,500,0,388.077,0,250C0,111.93,111.93,0,250,0z"
	/>
</g></g><g transform="translate(828,1173) scale(0.138,0.138)"><g transform="" style="fill: rgb(255, 255, 255);">
<path d="M250,0c138.077,0,250,111.93,250,250c0,138.077-111.923,250-250,250C111.93,500,0,388.077,0,250C0,111.93,111.93,0,250,0z"
	/>
</g></g><g transform="translate(1035,1173) scale(0.138,0.138)"><g transform="" style="fill: rgb(255, 255, 255);">
<path d="M250,0c138.077,0,250,111.93,250,250c0,138.077-111.923,250-250,250C111.93,500,0,388.077,0,250C0,111.93,111.93,0,250,0z"
	/>
</g></g><g transform="translate(1104,1173) scale(0.138,0.138)"><g transform="" style="fill: rgb(255, 255, 255);">
<path d="M250,0c138.077,0,250,111.93,250,250c0,138.077-111.923,250-250,250C111.93,500,0,388.077,0,250C0,111.93,111.93,0,250,0z"
	/>
</g></g><g transform="translate(1173,1173) scale(0.138,0.138)"><g transform="" style="fill: rgb(255, 255, 255);">
<path d="M250,0c138.077,0,250,111.93,250,250c0,138.077-111.923,250-250,250C111.93,500,0,388.077,0,250C0,111.93,111.93,0,250,0z"
	/>
</g></g><g transform="translate(1242,1173) scale(0.138,0.138)"><g transform="" style="fill: rgb(255, 255, 255);">
<path d="M250,0c138.077,0,250,111.93,250,250c0,138.077-111.923,250-250,250C111.93,500,0,388.077,0,250C0,111.93,111.93,0,250,0z"
	/>
</g></g><g transform="translate(1311,1173) scale(0.138,0.138)"><g transform="" style="fill: rgb(255, 255, 255);">
<path d="M250,0c138.077,0,250,111.93,250,250c0,138.077-111.923,250-250,250C111.93,500,0,388.077,0,250C0,111.93,111.93,0,250,0z"
	/>
</g></g><g transform="translate(1518,1173) scale(0.138,0.138)"><g transform="" style="fill: rgb(255, 255, 255);">
<path d="M250,0c138.077,0,250,111.93,250,250c0,138.077-111.923,250-250,250C111.93,500,0,388.077,0,250C0,111.93,111.93,0,250,0z"
	/>
</g></g><g transform="translate(1587,1173) scale(0.138,0.138)"><g transform="" style="fill: rgb(255, 255, 255);">
<path d="M250,0c138.077,0,250,111.93,250,250c0,138.077-111.923,250-250,250C111.93,500,0,388.077,0,250C0,111.93,111.93,0,250,0z"
	/>
</g></g><g transform="translate(1656,1173) scale(0.138,0.138)"><g transform="" style="fill: rgb(255, 255, 255);">
<path d="M250,0c138.077,0,250,111.93,250,250c0,138.077-111.923,250-250,250C111.93,500,0,388.077,0,250C0,111.93,111.93,0,250,0z"
	/>
</g></g><g transform="translate(1794,1173) scale(0.138,0.138)"><g transform="" style="fill: rgb(255, 255, 255);">
<path d="M250,0c138.077,0,250,111.93,250,250c0,138.077-111.923,250-250,250C111.93,500,0,388.077,0,250C0,111.93,111.93,0,250,0z"
	/>
</g></g><g transform="translate(1863,1173) scale(0.138,0.138)"><g transform="" style="fill: rgb(255, 255, 255);">
<path d="M250,0c138.077,0,250,111.93,250,250c0,138.077-111.923,250-250,250C111.93,500,0,388.077,0,250C0,111.93,111.93,0,250,0z"
	/>
</g></g><g transform="translate(1932,1173) scale(0.138,0.138)"><g transform="" style="fill: rgb(255, 255, 255);">
<path d="M250,0c138.077,0,250,111.93,250,250c0,138.077-111.923,250-250,250C111.93,500,0,388.077,0,250C0,111.93,111.93,0,250,0z"
	/>
</g></g><g transform="translate(0,1242) scale(0.138,0.138)"><g transform="" style="fill: rgb(255, 255, 255);">
<path d="M250,0c138.077,0,250,111.93,250,250c0,138.077-111.923,250-250,250C111.93,500,0,388.077,0,250C0,111.93,111.93,0,250,0z"
	/>
</g></g><g transform="translate(69,1242) scale(0.138,0.138)"><g transform="" style="fill: rgb(255, 255, 255);">
<path d="M250,0c138.077,0,250,111.93,250,250c0,138.077-111.923,250-250,250C111.93,500,0,388.077,0,250C0,111.93,111.93,0,250,0z"
	/>
</g></g><g transform="translate(207,1242) scale(0.138,0.138)"><g transform="" style="fill: rgb(255, 255, 255);">
<path d="M250,0c138.077,0,250,111.93,250,250c0,138.077-111.923,250-250,250C111.93,500,0,388.077,0,250C0,111.93,111.93,0,250,0z"
	/>
</g></g><g transform="translate(414,1242) scale(0.138,0.138)"><g transform="" style="fill: rgb(255, 255, 255);">
<path d="M250,0c138.077,0,250,111.93,250,250c0,138.077-111.923,250-250,250C111.93,500,0,388.077,0,250C0,111.93,111.93,0,250,0z"
	/>
</g></g><g transform="translate(690,1242) scale(0.138,0.138)"><g transform="" style="fill: rgb(255, 255, 255);">
<path d="M250,0c138.077,0,250,111.93,250,250c0,138.077-111.923,250-250,250C111.93,500,0,388.077,0,250C0,111.93,111.93,0,250,0z"
	/>
</g></g><g transform="translate(897,1242) scale(0.138,0.138)"><g transform="" style="fill: rgb(255, 255, 255);">
<path d="M250,0c138.077,0,250,111.93,250,250c0,138.077-111.923,250-250,250C111.93,500,0,388.077,0,250C0,111.93,111.93,0,250,0z"
	/>
</g></g><g transform="translate(966,1242) scale(0.138,0.138)"><g transform="" style="fill: rgb(255, 255, 255);">
<path d="M250,0c138.077,0,250,111.93,250,250c0,138.077-111.923,250-250,250C111.93,500,0,388.077,0,250C0,111.93,111.93,0,250,0z"
	/>
</g></g><g transform="translate(1035,1242) scale(0.138,0.138)"><g transform="" style="fill: rgb(255, 255, 255);">
<path d="M250,0c138.077,0,250,111.93,250,250c0,138.077-111.923,250-250,250C111.93,500,0,388.077,0,250C0,111.93,111.93,0,250,0z"
	/>
</g></g><g transform="translate(1173,1242) scale(0.138,0.138)"><g transform="" style="fill: rgb(255, 255, 255);">
<path d="M250,0c138.077,0,250,111.93,250,250c0,138.077-111.923,250-250,250C111.93,500,0,388.077,0,250C0,111.93,111.93,0,250,0z"
	/>
</g></g><g transform="translate(1242,1242) scale(0.138,0.138)"><g transform="" style="fill: rgb(255, 255, 255);">
<path d="M250,0c138.077,0,250,111.93,250,250c0,138.077-111.923,250-250,250C111.93,500,0,388.077,0,250C0,111.93,111.93,0,250,0z"
	/>
</g></g><g transform="translate(1311,1242) scale(0.138,0.138)"><g transform="" style="fill: rgb(255, 255, 255);">
<path d="M250,0c138.077,0,250,111.93,250,250c0,138.077-111.923,250-250,250C111.93,500,0,388.077,0,250C0,111.93,111.93,0,250,0z"
	/>
</g></g><g transform="translate(1656,1242) scale(0.138,0.138)"><g transform="" style="fill: rgb(255, 255, 255);">
<path d="M250,0c138.077,0,250,111.93,250,250c0,138.077-111.923,250-250,250C111.93,500,0,388.077,0,250C0,111.93,111.93,0,250,0z"
	/>
</g></g><g transform="translate(1725,1242) scale(0.138,0.138)"><g transform="" style="fill: rgb(255, 255, 255);">
<path d="M250,0c138.077,0,250,111.93,250,250c0,138.077-111.923,250-250,250C111.93,500,0,388.077,0,250C0,111.93,111.93,0,250,0z"
	/>
</g></g><g transform="translate(1932,1242) scale(0.138,0.138)"><g transform="" style="fill: rgb(255, 255, 255);">
<path d="M250,0c138.077,0,250,111.93,250,250c0,138.077-111.923,250-250,250C111.93,500,0,388.077,0,250C0,111.93,111.93,0,250,0z"
	/>
</g></g><g transform="translate(0,1311) scale(0.138,0.138)"><g transform="" style="fill: rgb(255, 255, 255);">
<path d="M250,0c138.077,0,250,111.93,250,250c0,138.077-111.923,250-250,250C111.93,500,0,388.077,0,250C0,111.93,111.93,0,250,0z"
	/>
</g></g><g transform="translate(138,1311) scale(0.138,0.138)"><g transform="" style="fill: rgb(255, 255, 255);">
<path d="M250,0c138.077,0,250,111.93,250,250c0,138.077-111.923,250-250,250C111.93,500,0,388.077,0,250C0,111.93,111.93,0,250,0z"
	/>
</g></g><g transform="translate(276,1311) scale(0.138,0.138)"><g transform="" style="fill: rgb(255, 255, 255);">
<path d="M250,0c138.077,0,250,111.93,250,250c0,138.077-111.923,250-250,250C111.93,500,0,388.077,0,250C0,111.93,111.93,0,250,0z"
	/>
</g></g><g transform="translate(483,1311) scale(0.138,0.138)"><g transform="" style="fill: rgb(255, 255, 255);">
<path d="M250,0c138.077,0,250,111.93,250,250c0,138.077-111.923,250-250,250C111.93,500,0,388.077,0,250C0,111.93,111.93,0,250,0z"
	/>
</g></g><g transform="translate(759,1311) scale(0.138,0.138)"><g transform="" style="fill: rgb(255, 255, 255);">
<path d="M250,0c138.077,0,250,111.93,250,250c0,138.077-111.923,250-250,250C111.93,500,0,388.077,0,250C0,111.93,111.93,0,250,0z"
	/>
</g></g><g transform="translate(828,1311) scale(0.138,0.138)"><g transform="" style="fill: rgb(255, 255, 255);">
<path d="M250,0c138.077,0,250,111.93,250,250c0,138.077-111.923,250-250,250C111.93,500,0,388.077,0,250C0,111.93,111.93,0,250,0z"
	/>
</g></g><g transform="translate(966,1311) scale(0.138,0.138)"><g transform="" style="fill: rgb(255, 255, 255);">
<path d="M250,0c138.077,0,250,111.93,250,250c0,138.077-111.923,250-250,250C111.93,500,0,388.077,0,250C0,111.93,111.93,0,250,0z"
	/>
</g></g><g transform="translate(1035,1311) scale(0.138,0.138)"><g transform="" style="fill: rgb(255, 255, 255);">
<path d="M250,0c138.077,0,250,111.93,250,250c0,138.077-111.923,250-250,250C111.93,500,0,388.077,0,250C0,111.93,111.93,0,250,0z"
	/>
</g></g><g transform="translate(1380,1311) scale(0.138,0.138)"><g transform="" style="fill: rgb(255, 255, 255);">
<path d="M250,0c138.077,0,250,111.93,250,250c0,138.077-111.923,250-250,250C111.93,500,0,388.077,0,250C0,111.93,111.93,0,250,0z"
	/>
</g></g><g transform="translate(1518,1311) scale(0.138,0.138)"><g transform="" style="fill: rgb(255, 255, 255);">
<path d="M250,0c138.077,0,250,111.93,250,250c0,138.077-111.923,250-250,250C111.93,500,0,388.077,0,250C0,111.93,111.93,0,250,0z"
	/>
</g></g><g transform="translate(0,1380) scale(0.138,0.138)"><g transform="" style="fill: rgb(255, 255, 255);">
<path d="M250,0c138.077,0,250,111.93,250,250c0,138.077-111.923,250-250,250C111.93,500,0,388.077,0,250C0,111.93,111.93,0,250,0z"
	/>
</g></g><g transform="translate(207,1380) scale(0.138,0.138)"><g transform="" style="fill: rgb(255, 255, 255);">
<path d="M250,0c138.077,0,250,111.93,250,250c0,138.077-111.923,250-250,250C111.93,500,0,388.077,0,250C0,111.93,111.93,0,250,0z"
	/>
</g></g><g transform="translate(276,1380) scale(0.138,0.138)"><g transform="" style="fill: rgb(255, 255, 255);">
<path d="M250,0c138.077,0,250,111.93,250,250c0,138.077-111.923,250-250,250C111.93,500,0,388.077,0,250C0,111.93,111.93,0,250,0z"
	/>
</g></g><g transform="translate(345,1380) scale(0.138,0.138)"><g transform="" style="fill: rgb(255, 255, 255);">
<path d="M250,0c138.077,0,250,111.93,250,250c0,138.077-111.923,250-250,250C111.93,500,0,388.077,0,250C0,111.93,111.93,0,250,0z"
	/>
</g></g><g transform="translate(414,1380) scale(0.138,0.138)"><g transform="" style="fill: rgb(255, 255, 255);">
<path d="M250,0c138.077,0,250,111.93,250,250c0,138.077-111.923,250-250,250C111.93,500,0,388.077,0,250C0,111.93,111.93,0,250,0z"
	/>
</g></g><g transform="translate(552,1380) scale(0.138,0.138)"><g transform="" style="fill: rgb(255, 255, 255);">
<path d="M250,0c138.077,0,250,111.93,250,250c0,138.077-111.923,250-250,250C111.93,500,0,388.077,0,250C0,111.93,111.93,0,250,0z"
	/>
</g></g><g transform="translate(621,1380) scale(0.138,0.138)"><g transform="" style="fill: rgb(255, 255, 255);">
<path d="M250,0c138.077,0,250,111.93,250,250c0,138.077-111.923,250-250,250C111.93,500,0,388.077,0,250C0,111.93,111.93,0,250,0z"
	/>
</g></g><g transform="translate(690,1380) scale(0.138,0.138)"><g transform="" style="fill: rgb(255, 255, 255);">
<path d="M250,0c138.077,0,250,111.93,250,250c0,138.077-111.923,250-250,250C111.93,500,0,388.077,0,250C0,111.93,111.93,0,250,0z"
	/>
</g></g><g transform="translate(759,1380) scale(0.138,0.138)"><g transform="" style="fill: rgb(255, 255, 255);">
<path d="M250,0c138.077,0,250,111.93,250,250c0,138.077-111.923,250-250,250C111.93,500,0,388.077,0,250C0,111.93,111.93,0,250,0z"
	/>
</g></g><g transform="translate(828,1380) scale(0.138,0.138)"><g transform="" style="fill: rgb(255, 255, 255);">
<path d="M250,0c138.077,0,250,111.93,250,250c0,138.077-111.923,250-250,250C111.93,500,0,388.077,0,250C0,111.93,111.93,0,250,0z"
	/>
</g></g><g transform="translate(1173,1380) scale(0.138,0.138)"><g transform="" style="fill: rgb(255, 255, 255);">
<path d="M250,0c138.077,0,250,111.93,250,250c0,138.077-111.923,250-250,250C111.93,500,0,388.077,0,250C0,111.93,111.93,0,250,0z"
	/>
</g></g><g transform="translate(1242,1380) scale(0.138,0.138)"><g transform="" style="fill: rgb(255, 255, 255);">
<path d="M250,0c138.077,0,250,111.93,250,250c0,138.077-111.923,250-250,250C111.93,500,0,388.077,0,250C0,111.93,111.93,0,250,0z"
	/>
</g></g><g transform="translate(1311,1380) scale(0.138,0.138)"><g transform="" style="fill: rgb(255, 255, 255);">
<path d="M250,0c138.077,0,250,111.93,250,250c0,138.077-111.923,250-250,250C111.93,500,0,388.077,0,250C0,111.93,111.93,0,250,0z"
	/>
</g></g><g transform="translate(1380,1380) scale(0.138,0.138)"><g transform="" style="fill: rgb(255, 255, 255);">
<path d="M250,0c138.077,0,250,111.93,250,250c0,138.077-111.923,250-250,250C111.93,500,0,388.077,0,250C0,111.93,111.93,0,250,0z"
	/>
</g></g><g transform="translate(1449,1380) scale(0.138,0.138)"><g transform="" style="fill: rgb(255, 255, 255);">
<path d="M250,0c138.077,0,250,111.93,250,250c0,138.077-111.923,250-250,250C111.93,500,0,388.077,0,250C0,111.93,111.93,0,250,0z"
	/>
</g></g><g transform="translate(1518,1380) scale(0.138,0.138)"><g transform="" style="fill: rgb(255, 255, 255);">
<path d="M250,0c138.077,0,250,111.93,250,250c0,138.077-111.923,250-250,250C111.93,500,0,388.077,0,250C0,111.93,111.93,0,250,0z"
	/>
</g></g><g transform="translate(1587,1380) scale(0.138,0.138)"><g transform="" style="fill: rgb(255, 255, 255);">
<path d="M250,0c138.077,0,250,111.93,250,250c0,138.077-111.923,250-250,250C111.93,500,0,388.077,0,250C0,111.93,111.93,0,250,0z"
	/>
</g></g><g transform="translate(1656,1380) scale(0.138,0.138)"><g transform="" style="fill: rgb(255, 255, 255);">
<path d="M250,0c138.077,0,250,111.93,250,250c0,138.077-111.923,250-250,250C111.93,500,0,388.077,0,250C0,111.93,111.93,0,250,0z"
	/>
</g></g><g transform="translate(1794,1380) scale(0.138,0.138)"><g transform="" style="fill: rgb(255, 255, 255);">
<path d="M250,0c138.077,0,250,111.93,250,250c0,138.077-111.923,250-250,250C111.93,500,0,388.077,0,250C0,111.93,111.93,0,250,0z"
	/>
</g></g><g transform="translate(1863,1380) scale(0.138,0.138)"><g transform="" style="fill: rgb(255, 255, 255);">
<path d="M250,0c138.077,0,250,111.93,250,250c0,138.077-111.923,250-250,250C111.93,500,0,388.077,0,250C0,111.93,111.93,0,250,0z"
	/>
</g></g><g transform="translate(1932,1380) scale(0.138,0.138)"><g transform="" style="fill: rgb(255, 255, 255);">
<path d="M250,0c138.077,0,250,111.93,250,250c0,138.077-111.923,250-250,250C111.93,500,0,388.077,0,250C0,111.93,111.93,0,250,0z"
	/>
</g></g><g transform="translate(552,1449) scale(0.138,0.138)"><g transform="" style="fill: rgb(255, 255, 255);">
<path d="M250,0c138.077,0,250,111.93,250,250c0,138.077-111.923,250-250,250C111.93,500,0,388.077,0,250C0,111.93,111.93,0,250,0z"
	/>
</g></g><g transform="translate(690,1449) scale(0.138,0.138)"><g transform="" style="fill: rgb(255, 255, 255);">
<path d="M250,0c138.077,0,250,111.93,250,250c0,138.077-111.923,250-250,250C111.93,500,0,388.077,0,250C0,111.93,111.93,0,250,0z"
	/>
</g></g><g transform="translate(897,1449) scale(0.138,0.138)"><g transform="" style="fill: rgb(255, 255, 255);">
<path d="M250,0c138.077,0,250,111.93,250,250c0,138.077-111.923,250-250,250C111.93,500,0,388.077,0,250C0,111.93,111.93,0,250,0z"
	/>
</g></g><g transform="translate(1035,1449) scale(0.138,0.138)"><g transform="" style="fill: rgb(255, 255, 255);">
<path d="M250,0c138.077,0,250,111.93,250,250c0,138.077-111.923,250-250,250C111.93,500,0,388.077,0,250C0,111.93,111.93,0,250,0z"
	/>
</g></g><g transform="translate(1173,1449) scale(0.138,0.138)"><g transform="" style="fill: rgb(255, 255, 255);">
<path d="M250,0c138.077,0,250,111.93,250,250c0,138.077-111.923,250-250,250C111.93,500,0,388.077,0,250C0,111.93,111.93,0,250,0z"
	/>
</g></g><g transform="translate(1242,1449) scale(0.138,0.138)"><g transform="" style="fill: rgb(255, 255, 255);">
<path d="M250,0c138.077,0,250,111.93,250,250c0,138.077-111.923,250-250,250C111.93,500,0,388.077,0,250C0,111.93,111.93,0,250,0z"
	/>
</g></g><g transform="translate(1380,1449) scale(0.138,0.138)"><g transform="" style="fill: rgb(255, 255, 255);">
<path d="M250,0c138.077,0,250,111.93,250,250c0,138.077-111.923,250-250,250C111.93,500,0,388.077,0,250C0,111.93,111.93,0,250,0z"
	/>
</g></g><g transform="translate(1656,1449) scale(0.138,0.138)"><g transform="" style="fill: rgb(255, 255, 255);">
<path d="M250,0c138.077,0,250,111.93,250,250c0,138.077-111.923,250-250,250C111.93,500,0,388.077,0,250C0,111.93,111.93,0,250,0z"
	/>
</g></g><g transform="translate(1725,1449) scale(0.138,0.138)"><g transform="" style="fill: rgb(255, 255, 255);">
<path d="M250,0c138.077,0,250,111.93,250,250c0,138.077-111.923,250-250,250C111.93,500,0,388.077,0,250C0,111.93,111.93,0,250,0z"
	/>
</g></g><g transform="translate(621,1518) scale(0.138,0.138)"><g transform="" style="fill: rgb(255, 255, 255);">
<path d="M250,0c138.077,0,250,111.93,250,250c0,138.077-111.923,250-250,250C111.93,500,0,388.077,0,250C0,111.93,111.93,0,250,0z"
	/>
</g></g><g transform="translate(690,1518) scale(0.138,0.138)"><g transform="" style="fill: rgb(255, 255, 255);">
<path d="M250,0c138.077,0,250,111.93,250,250c0,138.077-111.923,250-250,250C111.93,500,0,388.077,0,250C0,111.93,111.93,0,250,0z"
	/>
</g></g><g transform="translate(897,1518) scale(0.138,0.138)"><g transform="" style="fill: rgb(255, 255, 255);">
<path d="M250,0c138.077,0,250,111.93,250,250c0,138.077-111.923,250-250,250C111.93,500,0,388.077,0,250C0,111.93,111.93,0,250,0z"
	/>
</g></g><g transform="translate(966,1518) scale(0.138,0.138)"><g transform="" style="fill: rgb(255, 255, 255);">
<path d="M250,0c138.077,0,250,111.93,250,250c0,138.077-111.923,250-250,250C111.93,500,0,388.077,0,250C0,111.93,111.93,0,250,0z"
	/>
</g></g><g transform="translate(1035,1518) scale(0.138,0.138)"><g transform="" style="fill: rgb(255, 255, 255);">
<path d="M250,0c138.077,0,250,111.93,250,250c0,138.077-111.923,250-250,250C111.93,500,0,388.077,0,250C0,111.93,111.93,0,250,0z"
	/>
</g></g><g transform="translate(1173,1518) scale(0.138,0.138)"><g transform="" style="fill: rgb(255, 255, 255);">
<path d="M250,0c138.077,0,250,111.93,250,250c0,138.077-111.923,250-250,250C111.93,500,0,388.077,0,250C0,111.93,111.93,0,250,0z"
	/>
</g></g><g transform="translate(1311,1518) scale(0.138,0.138)"><g transform="" style="fill: rgb(255, 255, 255);">
<path d="M250,0c138.077,0,250,111.93,250,250c0,138.077-111.923,250-250,250C111.93,500,0,388.077,0,250C0,111.93,111.93,0,250,0z"
	/>
</g></g><g transform="translate(1380,1518) scale(0.138,0.138)"><g transform="" style="fill: rgb(255, 255, 255);">
<path d="M250,0c138.077,0,250,111.93,250,250c0,138.077-111.923,250-250,250C111.93,500,0,388.077,0,250C0,111.93,111.93,0,250,0z"
	/>
</g></g><g transform="translate(1518,1518) scale(0.138,0.138)"><g transform="" style="fill: rgb(255, 255, 255);">
<path d="M250,0c138.077,0,250,111.93,250,250c0,138.077-111.923,250-250,250C111.93,500,0,388.077,0,250C0,111.93,111.93,0,250,0z"
	/>
</g></g><g transform="translate(1656,1518) scale(0.138,0.138)"><g transform="" style="fill: rgb(255, 255, 255);">
<path d="M250,0c138.077,0,250,111.93,250,250c0,138.077-111.923,250-250,250C111.93,500,0,388.077,0,250C0,111.93,111.93,0,250,0z"
	/>
</g></g><g transform="translate(1725,1518) scale(0.138,0.138)"><g transform="" style="fill: rgb(255, 255, 255);">
<path d="M250,0c138.077,0,250,111.93,250,250c0,138.077-111.923,250-250,250C111.93,500,0,388.077,0,250C0,111.93,111.93,0,250,0z"
	/>
</g></g><g transform="translate(1794,1518) scale(0.138,0.138)"><g transform="" style="fill: rgb(255, 255, 255);">
<path d="M250,0c138.077,0,250,111.93,250,250c0,138.077-111.923,250-250,250C111.93,500,0,388.077,0,250C0,111.93,111.93,0,250,0z"
	/>
</g></g><g transform="translate(621,1587) scale(0.138,0.138)"><g transform="" style="fill: rgb(255, 255, 255);">
<path d="M250,0c138.077,0,250,111.93,250,250c0,138.077-111.923,250-250,250C111.93,500,0,388.077,0,250C0,111.93,111.93,0,250,0z"
	/>
</g></g><g transform="translate(690,1587) scale(0.138,0.138)"><g transform="" style="fill: rgb(255, 255, 255);">
<path d="M250,0c138.077,0,250,111.93,250,250c0,138.077-111.923,250-250,250C111.93,500,0,388.077,0,250C0,111.93,111.93,0,250,0z"
	/>
</g></g><g transform="translate(828,1587) scale(0.138,0.138)"><g transform="" style="fill: rgb(255, 255, 255);">
<path d="M250,0c138.077,0,250,111.93,250,250c0,138.077-111.923,250-250,250C111.93,500,0,388.077,0,250C0,111.93,111.93,0,250,0z"
	/>
</g></g><g transform="translate(897,1587) scale(0.138,0.138)"><g transform="" style="fill: rgb(255, 255, 255);">
<path d="M250,0c138.077,0,250,111.93,250,250c0,138.077-111.923,250-250,250C111.93,500,0,388.077,0,250C0,111.93,111.93,0,250,0z"
	/>
</g></g><g transform="translate(1104,1587) scale(0.138,0.138)"><g transform="" style="fill: rgb(255, 255, 255);">
<path d="M250,0c138.077,0,250,111.93,250,250c0,138.077-111.923,250-250,250C111.93,500,0,388.077,0,250C0,111.93,111.93,0,250,0z"
	/>
</g></g><g transform="translate(1311,1587) scale(0.138,0.138)"><g transform="" style="fill: rgb(255, 255, 255);">
<path d="M250,0c138.077,0,250,111.93,250,250c0,138.077-111.923,250-250,250C111.93,500,0,388.077,0,250C0,111.93,111.93,0,250,0z"
	/>
</g></g><g transform="translate(1380,1587) scale(0.138,0.138)"><g transform="" style="fill: rgb(255, 255, 255);">
<path d="M250,0c138.077,0,250,111.93,250,250c0,138.077-111.923,250-250,250C111.93,500,0,388.077,0,250C0,111.93,111.93,0,250,0z"
	/>
</g></g><g transform="translate(1656,1587) scale(0.138,0.138)"><g transform="" style="fill: rgb(255, 255, 255);">
<path d="M250,0c138.077,0,250,111.93,250,250c0,138.077-111.923,250-250,250C111.93,500,0,388.077,0,250C0,111.93,111.93,0,250,0z"
	/>
</g></g><g transform="translate(1863,1587) scale(0.138,0.138)"><g transform="" style="fill: rgb(255, 255, 255);">
<path d="M250,0c138.077,0,250,111.93,250,250c0,138.077-111.923,250-250,250C111.93,500,0,388.077,0,250C0,111.93,111.93,0,250,0z"
	/>
</g></g><g transform="translate(621,1656) scale(0.138,0.138)"><g transform="" style="fill: rgb(255, 255, 255);">
<path d="M250,0c138.077,0,250,111.93,250,250c0,138.077-111.923,250-250,250C111.93,500,0,388.077,0,250C0,111.93,111.93,0,250,0z"
	/>
</g></g><g transform="translate(828,1656) scale(0.138,0.138)"><g transform="" style="fill: rgb(255, 255, 255);">
<path d="M250,0c138.077,0,250,111.93,250,250c0,138.077-111.923,250-250,250C111.93,500,0,388.077,0,250C0,111.93,111.93,0,250,0z"
	/>
</g></g><g transform="translate(897,1656) scale(0.138,0.138)"><g transform="" style="fill: rgb(255, 255, 255);">
<path d="M250,0c138.077,0,250,111.93,250,250c0,138.077-111.923,250-250,250C111.93,500,0,388.077,0,250C0,111.93,111.93,0,250,0z"
	/>
</g></g><g transform="translate(1104,1656) scale(0.138,0.138)"><g transform="" style="fill: rgb(255, 255, 255);">
<path d="M250,0c138.077,0,250,111.93,250,250c0,138.077-111.923,250-250,250C111.93,500,0,388.077,0,250C0,111.93,111.93,0,250,0z"
	/>
</g></g><g transform="translate(1311,1656) scale(0.138,0.138)"><g transform="" style="fill: rgb(255, 255, 255);">
<path d="M250,0c138.077,0,250,111.93,250,250c0,138.077-111.923,250-250,250C111.93,500,0,388.077,0,250C0,111.93,111.93,0,250,0z"
	/>
</g></g><g transform="translate(1380,1656) scale(0.138,0.138)"><g transform="" style="fill: rgb(255, 255, 255);">
<path d="M250,0c138.077,0,250,111.93,250,250c0,138.077-111.923,250-250,250C111.93,500,0,388.077,0,250C0,111.93,111.93,0,250,0z"
	/>
</g></g><g transform="translate(1449,1656) scale(0.138,0.138)"><g transform="" style="fill: rgb(255, 255, 255);">
<path d="M250,0c138.077,0,250,111.93,250,250c0,138.077-111.923,250-250,250C111.93,500,0,388.077,0,250C0,111.93,111.93,0,250,0z"
	/>
</g></g><g transform="translate(1518,1656) scale(0.138,0.138)"><g transform="" style="fill: rgb(255, 255, 255);">
<path d="M250,0c138.077,0,250,111.93,250,250c0,138.077-111.923,250-250,250C111.93,500,0,388.077,0,250C0,111.93,111.93,0,250,0z"
	/>
</g></g><g transform="translate(1587,1656) scale(0.138,0.138)"><g transform="" style="fill: rgb(255, 255, 255);">
<path d="M250,0c138.077,0,250,111.93,250,250c0,138.077-111.923,250-250,250C111.93,500,0,388.077,0,250C0,111.93,111.93,0,250,0z"
	/>
</g></g><g transform="translate(1656,1656) scale(0.138,0.138)"><g transform="" style="fill: rgb(255, 255, 255);">
<path d="M250,0c138.077,0,250,111.93,250,250c0,138.077-111.923,250-250,250C111.93,500,0,388.077,0,250C0,111.93,111.93,0,250,0z"
	/>
</g></g><g transform="translate(1725,1656) scale(0.138,0.138)"><g transform="" style="fill: rgb(255, 255, 255);">
<path d="M250,0c138.077,0,250,111.93,250,250c0,138.077-111.923,250-250,250C111.93,500,0,388.077,0,250C0,111.93,111.93,0,250,0z"
	/>
</g></g><g transform="translate(1863,1656) scale(0.138,0.138)"><g transform="" style="fill: rgb(255, 255, 255);">
<path d="M250,0c138.077,0,250,111.93,250,250c0,138.077-111.923,250-250,250C111.93,500,0,388.077,0,250C0,111.93,111.93,0,250,0z"
	/>
</g></g><g transform="translate(1932,1656) scale(0.138,0.138)"><g transform="" style="fill: rgb(255, 255, 255);">
<path d="M250,0c138.077,0,250,111.93,250,250c0,138.077-111.923,250-250,250C111.93,500,0,388.077,0,250C0,111.93,111.93,0,250,0z"
	/>
</g></g><g transform="translate(621,1725) scale(0.138,0.138)"><g transform="" style="fill: rgb(255, 255, 255);">
<path d="M250,0c138.077,0,250,111.93,250,250c0,138.077-111.923,250-250,250C111.93,500,0,388.077,0,250C0,111.93,111.93,0,250,0z"
	/>
</g></g><g transform="translate(1035,1725) scale(0.138,0.138)"><g transform="" style="fill: rgb(255, 255, 255);">
<path d="M250,0c138.077,0,250,111.93,250,250c0,138.077-111.923,250-250,250C111.93,500,0,388.077,0,250C0,111.93,111.93,0,250,0z"
	/>
</g></g><g transform="translate(1104,1725) scale(0.138,0.138)"><g transform="" style="fill: rgb(255, 255, 255);">
<path d="M250,0c138.077,0,250,111.93,250,250c0,138.077-111.923,250-250,250C111.93,500,0,388.077,0,250C0,111.93,111.93,0,250,0z"
	/>
</g></g><g transform="translate(1311,1725) scale(0.138,0.138)"><g transform="" style="fill: rgb(255, 255, 255);">
<path d="M250,0c138.077,0,250,111.93,250,250c0,138.077-111.923,250-250,250C111.93,500,0,388.077,0,250C0,111.93,111.93,0,250,0z"
	/>
</g></g><g transform="translate(1380,1725) scale(0.138,0.138)"><g transform="" style="fill: rgb(255, 255, 255);">
<path d="M250,0c138.077,0,250,111.93,250,250c0,138.077-111.923,250-250,250C111.93,500,0,388.077,0,250C0,111.93,111.93,0,250,0z"
	/>
</g></g><g transform="translate(1449,1725) scale(0.138,0.138)"><g transform="" style="fill: rgb(255, 255, 255);">
<path d="M250,0c138.077,0,250,111.93,250,250c0,138.077-111.923,250-250,250C111.93,500,0,388.077,0,250C0,111.93,111.93,0,250,0z"
	/>
</g></g><g transform="translate(1725,1725) scale(0.138,0.138)"><g transform="" style="fill: rgb(255, 255, 255);">
<path d="M250,0c138.077,0,250,111.93,250,250c0,138.077-111.923,250-250,250C111.93,500,0,388.077,0,250C0,111.93,111.93,0,250,0z"
	/>
</g></g><g transform="translate(1794,1725) scale(0.138,0.138)"><g transform="" style="fill: rgb(255, 255, 255);">
<path d="M250,0c138.077,0,250,111.93,250,250c0,138.077-111.923,250-250,250C111.93,500,0,388.077,0,250C0,111.93,111.93,0,250,0z"
	/>
</g></g><g transform="translate(1932,1725) scale(0.138,0.138)"><g transform="" style="fill: rgb(255, 255, 255);">
<path d="M250,0c138.077,0,250,111.93,250,250c0,138.077-111.923,250-250,250C111.93,500,0,388.077,0,250C0,111.93,111.93,0,250,0z"
	/>
</g></g><g transform="translate(759,1794) scale(0.138,0.138)"><g transform="" style="fill: rgb(255, 255, 255);">
<path d="M250,0c138.077,0,250,111.93,250,250c0,138.077-111.923,250-250,250C111.93,500,0,388.077,0,250C0,111.93,111.93,0,250,0z"
	/>
</g></g><g transform="translate(1035,1794) scale(0.138,0.138)"><g transform="" style="fill: rgb(255, 255, 255);">
<path d="M250,0c138.077,0,250,111.93,250,250c0,138.077-111.923,250-250,250C111.93,500,0,388.077,0,250C0,111.93,111.93,0,250,0z"
	/>
</g></g><g transform="translate(1104,1794) scale(0.138,0.138)"><g transform="" style="fill: rgb(255, 255, 255);">
<path d="M250,0c138.077,0,250,111.93,250,250c0,138.077-111.923,250-250,250C111.93,500,0,388.077,0,250C0,111.93,111.93,0,250,0z"
	/>
</g></g><g transform="translate(1311,1794) scale(0.138,0.138)"><g transform="" style="fill: rgb(255, 255, 255);">
<path d="M250,0c138.077,0,250,111.93,250,250c0,138.077-111.923,250-250,250C111.93,500,0,388.077,0,250C0,111.93,111.93,0,250,0z"
	/>
</g></g><g transform="translate(1380,1794) scale(0.138,0.138)"><g transform="" style="fill: rgb(255, 255, 255);">
<path d="M250,0c138.077,0,250,111.93,250,250c0,138.077-111.923,250-250,250C111.93,500,0,388.077,0,250C0,111.93,111.93,0,250,0z"
	/>
</g></g><g transform="translate(1449,1794) scale(0.138,0.138)"><g transform="" style="fill: rgb(255, 255, 255);">
<path d="M250,0c138.077,0,250,111.93,250,250c0,138.077-111.923,250-250,250C111.93,500,0,388.077,0,250C0,111.93,111.93,0,250,0z"
	/>
</g></g><g transform="translate(1518,1794) scale(0.138,0.138)"><g transform="" style="fill: rgb(255, 255, 255);">
<path d="M250,0c138.077,0,250,111.93,250,250c0,138.077-111.923,250-250,250C111.93,500,0,388.077,0,250C0,111.93,111.93,0,250,0z"
	/>
</g></g><g transform="translate(1587,1794) scale(0.138,0.138)"><g transform="" style="fill: rgb(255, 255, 255);">
<path d="M250,0c138.077,0,250,111.93,250,250c0,138.077-111.923,250-250,250C111.93,500,0,388.077,0,250C0,111.93,111.93,0,250,0z"
	/>
</g></g><g transform="translate(1656,1794) scale(0.138,0.138)"><g transform="" style="fill: rgb(255, 255, 255);">
<path d="M250,0c138.077,0,250,111.93,250,250c0,138.077-111.923,250-250,250C111.93,500,0,388.077,0,250C0,111.93,111.93,0,250,0z"
	/>
</g></g><g transform="translate(1725,1794) scale(0.138,0.138)"><g transform="" style="fill: rgb(255, 255, 255);">
<path d="M250,0c138.077,0,250,111.93,250,250c0,138.077-111.923,250-250,250C111.93,500,0,388.077,0,250C0,111.93,111.93,0,250,0z"
	/>
</g></g><g transform="translate(1794,1794) scale(0.138,0.138)"><g transform="" style="fill: rgb(255, 255, 255);">
<path d="M250,0c138.077,0,250,111.93,250,250c0,138.077-111.923,250-250,250C111.93,500,0,388.077,0,250C0,111.93,111.93,0,250,0z"
	/>
</g></g><g transform="translate(1863,1794) scale(0.138,0.138)"><g transform="" style="fill: rgb(255, 255, 255);">
<path d="M250,0c138.077,0,250,111.93,250,250c0,138.077-111.923,250-250,250C111.93,500,0,388.077,0,250C0,111.93,111.93,0,250,0z"
	/>
</g></g><g transform="translate(621,1863) scale(0.138,0.138)"><g transform="" style="fill: rgb(255, 255, 255);">
<path d="M250,0c138.077,0,250,111.93,250,250c0,138.077-111.923,250-250,250C111.93,500,0,388.077,0,250C0,111.93,111.93,0,250,0z"
	/>
</g></g><g transform="translate(690,1863) scale(0.138,0.138)"><g transform="" style="fill: rgb(255, 255, 255);">
<path d="M250,0c138.077,0,250,111.93,250,250c0,138.077-111.923,250-250,250C111.93,500,0,388.077,0,250C0,111.93,111.93,0,250,0z"
	/>
</g></g><g transform="translate(759,1863) scale(0.138,0.138)"><g transform="" style="fill: rgb(255, 255, 255);">
<path d="M250,0c138.077,0,250,111.93,250,250c0,138.077-111.923,250-250,250C111.93,500,0,388.077,0,250C0,111.93,111.93,0,250,0z"
	/>
</g></g><g transform="translate(828,1863) scale(0.138,0.138)"><g transform="" style="fill: rgb(255, 255, 255);">
<path d="M250,0c138.077,0,250,111.93,250,250c0,138.077-111.923,250-250,250C111.93,500,0,388.077,0,250C0,111.93,111.93,0,250,0z"
	/>
</g></g><g transform="translate(897,1863) scale(0.138,0.138)"><g transform="" style="fill: rgb(255, 255, 255);">
<path d="M250,0c138.077,0,250,111.93,250,250c0,138.077-111.923,250-250,250C111.93,500,0,388.077,0,250C0,111.93,111.93,0,250,0z"
	/>
</g></g><g transform="translate(1104,1863) scale(0.138,0.138)"><g transform="" style="fill: rgb(255, 255, 255);">
<path d="M250,0c138.077,0,250,111.93,250,250c0,138.077-111.923,250-250,250C111.93,500,0,388.077,0,250C0,111.93,111.93,0,250,0z"
	/>
</g></g><g transform="translate(1242,1863) scale(0.138,0.138)"><g transform="" style="fill: rgb(255, 255, 255);">
<path d="M250,0c138.077,0,250,111.93,250,250c0,138.077-111.923,250-250,250C111.93,500,0,388.077,0,250C0,111.93,111.93,0,250,0z"
	/>
</g></g><g transform="translate(1518,1863) scale(0.138,0.138)"><g transform="" style="fill: rgb(255, 255, 255);">
<path d="M250,0c138.077,0,250,111.93,250,250c0,138.077-111.923,250-250,250C111.93,500,0,388.077,0,250C0,111.93,111.93,0,250,0z"
	/>
</g></g><g transform="translate(1587,1863) scale(0.138,0.138)"><g transform="" style="fill: rgb(255, 255, 255);">
<path d="M250,0c138.077,0,250,111.93,250,250c0,138.077-111.923,250-250,250C111.93,500,0,388.077,0,250C0,111.93,111.93,0,250,0z"
	/>
</g></g><g transform="translate(1725,1863) scale(0.138,0.138)"><g transform="" style="fill: rgb(255, 255, 255);">
<path d="M250,0c138.077,0,250,111.93,250,250c0,138.077-111.923,250-250,250C111.93,500,0,388.077,0,250C0,111.93,111.93,0,250,0z"
	/>
</g></g><g transform="translate(1794,1863) scale(0.138,0.138)"><g transform="" style="fill: rgb(255, 255, 255);">
<path d="M250,0c138.077,0,250,111.93,250,250c0,138.077-111.923,250-250,250C111.93,500,0,388.077,0,250C0,111.93,111.93,0,250,0z"
	/>
</g></g><g transform="translate(1932,1863) scale(0.138,0.138)"><g transform="" style="fill: rgb(255, 255, 255);">
<path d="M250,0c138.077,0,250,111.93,250,250c0,138.077-111.923,250-250,250C111.93,500,0,388.077,0,250C0,111.93,111.93,0,250,0z"
	/>
</g></g><g transform="translate(552,1932) scale(0.138,0.138)"><g transform="" style="fill: rgb(255, 255, 255);">
<path d="M250,0c138.077,0,250,111.93,250,250c0,138.077-111.923,250-250,250C111.93,500,0,388.077,0,250C0,111.93,111.93,0,250,0z"
	/>
</g></g><g transform="translate(690,1932) scale(0.138,0.138)"><g transform="" style="fill: rgb(255, 255, 255);">
<path d="M250,0c138.077,0,250,111.93,250,250c0,138.077-111.923,250-250,250C111.93,500,0,388.077,0,250C0,111.93,111.93,0,250,0z"
	/>
</g></g><g transform="translate(828,1932) scale(0.138,0.138)"><g transform="" style="fill: rgb(255, 255, 255);">
<path d="M250,0c138.077,0,250,111.93,250,250c0,138.077-111.923,250-250,250C111.93,500,0,388.077,0,250C0,111.93,111.93,0,250,0z"
	/>
</g></g><g transform="translate(897,1932) scale(0.138,0.138)"><g transform="" style="fill: rgb(255, 255, 255);">
<path d="M250,0c138.077,0,250,111.93,250,250c0,138.077-111.923,250-250,250C111.93,500,0,388.077,0,250C0,111.93,111.93,0,250,0z"
	/>
</g></g><g transform="translate(1035,1932) scale(0.138,0.138)"><g transform="" style="fill: rgb(255, 255, 255);">
<path d="M250,0c138.077,0,250,111.93,250,250c0,138.077-111.923,250-250,250C111.93,500,0,388.077,0,250C0,111.93,111.93,0,250,0z"
	/>
</g></g><g transform="translate(1173,1932) scale(0.138,0.138)"><g transform="" style="fill: rgb(255, 255, 255);">
<path d="M250,0c138.077,0,250,111.93,250,250c0,138.077-111.923,250-250,250C111.93,500,0,388.077,0,250C0,111.93,111.93,0,250,0z"
	/>
</g></g><g transform="translate(1311,1932) scale(0.138,0.138)"><g transform="" style="fill: rgb(255, 255, 255);">
<path d="M250,0c138.077,0,250,111.93,250,250c0,138.077-111.923,250-250,250C111.93,500,0,388.077,0,250C0,111.93,111.93,0,250,0z"
	/>
</g></g><g transform="translate(1518,1932) scale(0.138,0.138)"><g transform="" style="fill: rgb(255, 255, 255);">
<path d="M250,0c138.077,0,250,111.93,250,250c0,138.077-111.923,250-250,250C111.93,500,0,388.077,0,250C0,111.93,111.93,0,250,0z"
	/>
</g></g><g transform="translate(1587,1932) scale(0.138,0.138)"><g transform="" style="fill: rgb(255, 255, 255);">
<path d="M250,0c138.077,0,250,111.93,250,250c0,138.077-111.923,250-250,250C111.93,500,0,388.077,0,250C0,111.93,111.93,0,250,0z"
	/>
</g></g><g transform="translate(1656,1932) scale(0.138,0.138)"><g transform="" style="fill: rgb(255, 255, 255);">
<path d="M250,0c138.077,0,250,111.93,250,250c0,138.077-111.923,250-250,250C111.93,500,0,388.077,0,250C0,111.93,111.93,0,250,0z"
	/>
</g></g><g transform="translate(1794,1932) scale(0.138,0.138)"><g transform="" style="fill: rgb(255, 255, 255);">
<path d="M250,0c138.077,0,250,111.93,250,250c0,138.077-111.923,250-250,250C111.93,500,0,388.077,0,250C0,111.93,111.93,0,250,0z"
	/>
</g></g><g transform="translate(0,0) scale(4.83, 4.83)"><g transform=" translate(100, 0) scale(-1,1) " style="fill: rgb(255, 255, 255);">
<g>
	<path style="fill:none;" d="M85,66.221V33.75C85,23.411,76.414,15,65.859,15H34.14C23.586,15,15,23.411,15,33.75v51.246
		l50.855-0.016C76.414,84.98,85,76.564,85,66.221z"/>
	<path d="M100,66.221V33.75C100,15.141,84.68,0,65.859,0H34.14C15.32,0,0,15.141,0,33.75V100l65.859-0.02
		C84.68,99.98,100,84.84,100,66.221z M85,66.221c0,10.344-8.586,18.76-19.145,18.76L15,84.996V33.75C15,23.411,23.586,15,34.14,15
		h31.719C76.414,15,85,23.411,85,33.75V66.221z"/>
</g>
</g></g><g transform="translate(1518,0) scale(4.83, 4.83)"><g transform="" style="fill: rgb(255, 255, 255);">
<g>
	<path style="fill:none;" d="M85,66.221V33.75C85,23.411,76.414,15,65.859,15H34.14C23.586,15,15,23.411,15,33.75v51.246
		l50.855-0.016C76.414,84.98,85,76.564,85,66.221z"/>
	<path d="M100,66.221V33.75C100,15.141,84.68,0,65.859,0H34.14C15.32,0,0,15.141,0,33.75V100l65.859-0.02
		C84.68,99.98,100,84.84,100,66.221z M85,66.221c0,10.344-8.586,18.76-19.145,18.76L15,84.996V33.75C15,23.411,23.586,15,34.14,15
		h31.719C76.414,15,85,23.411,85,33.75V66.221z"/>
</g>
</g></g><g transform="translate(0,1518) scale(4.83, 4.83)"><g transform=" translate(100, 0) scale(-1,1)  translate(0,100) scale(1,-1) " style="fill: rgb(255, 255, 255);">
<g>
	<path style="fill:none;" d="M85,66.221V33.75C85,23.411,76.414,15,65.859,15H34.14C23.586,15,15,23.411,15,33.75v51.246
		l50.855-0.016C76.414,84.98,85,76.564,85,66.221z"/>
	<path d="M100,66.221V33.75C100,15.141,84.68,0,65.859,0H34.14C15.32,0,0,15.141,0,33.75V100l65.859-0.02
		C84.68,99.98,100,84.84,100,66.221z M85,66.221c0,10.344-8.586,18.76-19.145,18.76L15,84.996V33.75C15,23.411,23.586,15,34.14,15
		h31.719C76.414,15,85,23.411,85,33.75V66.221z"/>
</g>
</g></g><g transform="translate(138,138) scale(2.07, 2.07)"><g transform=" translate(100, 0) scale(-1,1) " style="fill: rgb(255, 255, 255);">
<path d="M100,72.779V27.195C100,12.203,87.604,0,72.37,0H27.63C12.397,0,0,12.203,0,27.195V100l72.37-0.042
	C87.604,99.958,100,87.771,100,72.779z"/>
</g></g><g transform="translate(1656,138) scale(2.07, 2.07)"><g transform="" style="fill: rgb(255, 255, 255);">
<path d="M100,72.779V27.195C100,12.203,87.604,0,72.37,0H27.63C12.397,0,0,12.203,0,27.195V100l72.37-0.042
	C87.604,99.958,100,87.771,100,72.779z"/>
</g></g><g transform="translate(138,1656) scale(2.07, 2.07)"><g transform=" translate(100, 0) scale(-1,1)  translate(0,100) scale(1,-1) " style="fill: rgb(255, 255, 255);">
<path d="M100,72.779V27.195C100,12.203,87.604,0,72.37,0H27.63C12.397,0,0,12.203,0,27.195V100l72.37-0.042
	C87.604,99.958,100,87.771,100,72.779z"/>
</g></g></g>
</svg>